<svg version="1.1" id="Layer_1" xmlns="http://www.w3.org/2000/svg" xmlns:xlink="http://www.w3.org/1999/xlink" x="0px" y="0px"
	 width="100%" viewBox="0 0 400 400" enable-background="new 0 0 400 400" xml:space="preserve">
<path fill="#FFFEFE" opacity="1.000000" stroke="none" 
	d="
M362.000000,401.000000 
	C241.370880,401.000000 121.241760,401.000000 1.056319,401.000000 
	C1.056319,267.745880 1.056319,134.491760 1.056319,1.118808 
	C134.212372,1.118808 267.424866,1.118808 400.818695,1.118808 
	C400.818695,134.333115 400.818695,267.666565 400.818695,401.000000 
	C388.158478,401.000000 375.329254,401.000000 362.000000,401.000000 
M50.026390,180.676361 
	C49.915283,179.253555 49.804180,177.830765 49.700470,176.502625 
	C44.153706,176.502625 39.081074,176.502625 33.730461,176.502625 
	C33.730461,180.525726 33.522816,184.194733 33.788746,187.829071 
	C34.055779,191.478531 32.910179,192.997604 29.059076,192.691223 
	C25.188066,192.383270 21.273443,192.623489 17.550362,192.623489 
	C17.550362,198.602707 17.550362,203.689087 17.550362,209.124741 
	C23.019524,209.124741 28.131481,209.124741 33.851524,209.124741 
	C33.851524,214.684570 33.851524,219.897690 33.851524,224.992966 
	C39.566433,224.992966 44.656460,224.992966 50.164474,224.992966 
	C50.164474,219.561752 50.164474,214.461884 50.164474,209.022583 
	C55.701038,209.022583 60.813564,209.022583 66.075340,209.022583 
	C66.075340,203.431015 66.075340,198.207291 66.075340,192.511810 
	C60.655945,192.511810 55.566238,192.511810 50.026569,192.511810 
	C50.026569,188.573364 50.026569,185.105057 50.026390,180.676361 
M248.744110,203.333847 
	C249.250687,202.306534 249.757263,201.279221 250.263855,200.251923 
	C251.245438,201.007523 252.642029,201.563568 253.121475,202.560623 
	C254.093536,204.582123 254.569077,206.842361 255.199020,208.844391 
	C257.123718,208.844391 258.577332,208.844391 260.659698,208.844391 
	C259.451569,205.105057 258.359619,201.725342 257.159332,198.010269 
	C259.649536,195.390854 261.444763,192.133514 258.081696,188.381790 
	C256.089386,186.159256 246.247574,184.977325 244.259460,186.689056 
	C243.728653,187.146072 243.413849,188.129913 243.406586,188.875854 
	C243.342102,195.496460 243.369095,202.117966 243.369095,208.854385 
	C245.348663,208.854385 246.803558,208.854385 248.534348,208.854385 
	C248.608414,207.217209 248.674759,205.750320 248.744110,203.333847 
M137.737305,208.939682 
	C138.854782,208.059448 140.413879,207.403305 140.997864,206.252396 
	C142.215881,203.851929 142.918533,201.189972 144.239014,197.500992 
	C145.485947,201.431351 146.216568,204.114777 147.219849,206.692093 
	C147.575424,207.605515 148.529953,208.771393 149.332016,208.873718 
	C149.988937,208.957535 151.212875,207.771164 151.517380,206.911285 
	C153.111786,202.408966 154.493317,197.831253 155.948822,193.279755 
	C155.613205,192.995071 155.277588,192.710403 154.941956,192.425735 
	C154.027802,193.334976 152.852631,194.103577 152.267227,195.189957 
	C151.575378,196.473892 151.416397,198.039474 150.983078,199.469803 
	C150.562271,200.858841 150.086578,202.231277 149.352142,204.475128 
	C148.116592,200.690109 147.285812,197.826172 146.216812,195.054123 
	C145.871613,194.158966 144.900330,193.505249 144.215424,192.741089 
	C143.496475,193.526245 142.485214,194.194305 142.114761,195.119080 
	C141.107895,197.632599 140.372330,200.254776 139.529205,202.833893 
	C139.190170,202.822113 138.851135,202.810333 138.512100,202.798569 
	C137.471466,199.460449 136.430817,196.122345 135.527466,193.224640 
	C131.185944,193.224640 127.336288,193.224640 123.481544,193.224640 
	C122.227821,205.457199 122.719414,208.409225 126.060463,208.543213 
	C126.896652,196.148788 126.896652,196.148788 132.834549,194.685944 
	C134.253021,199.285049 135.673294,203.889954 137.737305,208.939682 
M279.992767,201.400986 
	C280.362457,205.362473 281.742035,208.830795 286.202332,209.171112 
	C289.711029,209.438828 293.289978,208.786011 296.798431,208.544800 
	C296.798431,200.774719 296.798431,193.155365 296.798431,185.397232 
	C295.060730,185.397232 293.545074,185.397232 291.999969,185.397232 
	C291.839874,187.995514 291.700226,190.262054 291.559662,192.543167 
	C283.621643,191.601303 281.214600,193.337311 279.992767,201.400986 
M323.623169,190.773087 
	C325.286041,187.788239 324.635284,186.186646 321.000000,186.012650 
	C315.866760,185.766937 311.232422,186.809738 308.501282,191.538284 
	C306.003021,195.863586 305.973206,200.514160 308.760620,204.777405 
	C311.710358,209.289032 316.340576,209.539169 321.189545,209.237671 
	C324.840149,209.010666 324.700653,207.275665 323.190308,205.510818 
	C319.580902,204.557861 315.613708,203.751923 313.462006,201.331848 
	C312.122406,199.825119 312.457245,194.778320 313.971985,193.301910 
	C315.885529,191.436798 319.764801,191.588486 323.623169,190.773087 
M271.278015,192.093689 
	C264.958801,192.707870 261.532562,196.402359 262.145386,201.941284 
	C262.769745,207.584427 267.310486,210.379959 274.023529,209.053757 
	C275.061859,208.848633 275.928802,207.776031 276.875000,207.104599 
	C275.818695,206.459351 274.836365,205.556824 273.689331,205.227188 
	C271.817200,204.689178 269.837677,204.524750 267.903473,204.202713 
	C267.988983,203.709457 268.074493,203.216202 268.160034,202.722931 
	C271.355133,202.540771 274.550232,202.358612 277.889801,202.168213 
	C278.145477,197.163467 277.046661,193.521301 271.278015,192.093689 
M90.908211,193.506775 
	C88.390778,191.221909 88.517586,186.013672 83.200134,186.280899 
	C83.200134,194.066330 83.200134,201.465591 83.200134,208.864868 
	C83.743217,208.960114 84.286301,209.055374 84.829384,209.150635 
	C87.726379,204.275955 84.640518,198.123001 86.614014,192.578262 
	C88.846336,196.148941 90.773544,199.244308 92.713387,202.331741 
	C96.737572,208.736588 96.740334,208.734848 99.695053,208.430252 
	C99.695053,201.045502 99.695053,193.685547 99.695053,186.325592 
	C95.289268,190.921707 98.299698,196.776489 96.515587,202.355865 
	C94.577072,199.332947 92.914711,196.740677 90.908211,193.506775 
M183.077469,216.008911 
	C187.460571,215.398743 189.436478,212.513977 189.611618,208.453308 
	C189.832504,203.332718 189.664902,198.195358 189.664902,193.448441 
	C187.328476,193.078323 185.272232,192.736786 183.210892,192.429413 
	C179.117233,191.818970 175.907547,193.666885 175.206131,197.418594 
	C174.654984,200.366592 174.986954,204.561844 176.769089,206.558624 
	C178.540054,208.542892 182.611420,208.474030 185.887329,209.363434 
	C185.625031,211.754272 185.625031,211.754272 175.868103,214.811676 
	C177.993530,215.224548 180.118958,215.637436 183.077469,216.008911 
M354.125366,194.331970 
	C349.228546,191.383865 344.877258,191.341629 341.864594,194.516510 
	C338.761108,197.787125 338.435120,201.684372 340.590485,205.529572 
	C342.809875,209.488876 346.654358,209.933228 350.610291,209.014969 
	C356.447906,207.659943 358.198395,201.286774 354.125366,194.331970 
M359.343170,205.365982 
	C359.238434,209.001373 363.431885,210.845612 367.773132,208.709061 
	C369.182129,208.015610 370.809601,206.180817 370.888855,204.785782 
	C370.980835,203.167419 369.779266,201.184387 368.579742,199.870255 
	C367.499298,198.686600 365.662903,198.192993 364.159912,197.395035 
	C364.235291,197.034744 364.310638,196.674469 364.386017,196.314178 
	C366.185669,196.219193 367.985352,196.124191 371.306458,195.948898 
	C369.745911,194.175858 368.718170,192.309875 368.111633,192.437988 
	C365.240326,193.044403 361.109955,193.369385 359.944733,195.307571 
	C356.468750,201.089218 363.449829,201.543655 367.217163,205.451385 
	C363.811005,205.231476 361.891907,205.107574 359.343170,205.365982 
M375.485535,193.705811 
	C369.818085,200.377441 377.730316,201.374039 381.604187,205.532486 
	C378.110779,205.348160 376.171906,205.245865 373.436737,205.101547 
	C373.911530,206.563141 374.427887,208.768463 374.648376,208.739273 
	C378.066559,208.286652 382.984192,208.709137 384.544617,206.649033 
	C389.093170,200.643997 381.001404,199.998978 378.813019,196.985474 
	C380.301453,194.500381 385.385803,198.674088 384.515717,192.136154 
	C381.669312,192.503220 378.867859,192.864502 375.485535,193.705811 
M111.538589,209.417419 
	C117.325188,208.449707 120.046158,205.458832 119.818016,200.316711 
	C119.612701,195.689087 116.399994,192.357040 112.035316,192.244949 
	C107.758255,192.135086 104.455467,194.986191 103.860435,199.301849 
	C103.100151,204.816071 105.209389,207.875137 111.538589,209.417419 
M163.945709,192.395920 
	C158.926102,194.476028 157.055832,197.654053 157.843491,202.827484 
	C158.453201,206.832138 160.828629,209.152054 164.839951,209.238449 
	C166.855911,209.281876 168.890167,208.475723 170.916153,208.053772 
	C170.820267,207.593384 170.724380,207.132980 170.628494,206.672592 
	C162.994873,207.236053 161.856659,206.641022 161.430237,201.493744 
	C164.876175,201.493744 168.306229,201.493744 171.698242,201.493744 
	C172.205734,195.005112 170.761597,193.187698 163.945709,192.395920 
M218.226318,197.837173 
	C218.926239,201.507614 216.733948,205.933655 220.682800,208.835480 
	C221.592789,205.367355 221.193512,201.995682 221.773300,198.801743 
	C222.035080,197.359695 224.245987,196.271500 225.572571,195.022736 
	C226.726440,196.374725 228.541473,197.578598 228.885040,199.112122 
	C229.453583,201.649902 228.899994,204.419861 229.198273,207.048981 
	C229.289490,207.852936 230.622787,208.515991 232.142761,209.962570 
	C232.142761,204.896286 232.386185,201.224503 232.078125,197.599609 
	C231.731201,193.517410 228.550919,191.639816 224.606155,192.586700 
	C222.649368,193.056396 220.612595,193.192825 218.238022,193.533707 
	C218.238022,194.377975 218.238022,195.672623 218.226318,197.837173 
M209.938583,208.239685 
	C211.113464,208.491104 212.288345,208.742523 213.767456,209.059052 
	C213.767456,205.026398 214.275909,201.315369 213.571579,197.850891 
	C213.166702,195.859360 211.101044,193.372986 209.229660,192.736664 
	C207.190857,192.043411 204.511765,193.233154 202.111816,193.602005 
	C202.214951,194.101273 202.318069,194.600540 202.421188,195.099808 
	C204.998856,196.039413 209.220444,192.665100 210.490753,198.062988 
	C206.186249,199.414841 199.984741,199.006989 201.186783,205.803055 
	C201.963547,210.194656 205.709244,209.857971 209.938583,208.239685 
M327.604309,196.063736 
	C327.604309,200.312256 327.604309,204.560776 327.604309,208.785538 
	C329.698822,208.785538 331.129700,208.785538 332.389008,208.785538 
	C334.586151,204.687851 329.394928,197.826950 337.860321,196.604218 
	C337.765015,195.096664 337.676605,193.697983 337.627625,192.923294 
	C334.769012,192.738190 332.348358,192.318970 329.997101,192.564484 
	C329.114960,192.656601 328.394135,194.293594 327.604309,196.063736 
M197.414413,193.705460 
	C195.331696,192.011200 194.180115,192.376282 194.174591,195.189545 
	C194.167053,199.018494 194.081116,202.852127 194.261917,206.672699 
	C194.299988,207.476852 195.347946,208.233215 195.930557,209.011597 
	C196.441849,208.168777 197.360870,207.341934 197.394669,206.480377 
	C197.551193,202.491119 197.461868,198.492218 197.414413,193.705460 
z"/>
<path fill="#D42D20" opacity="1.000000" stroke="none" 
	d="
M50.026482,181.156555 
	C50.026569,185.105057 50.026569,188.573364 50.026569,192.511810 
	C55.566238,192.511810 60.655945,192.511810 66.075340,192.511810 
	C66.075340,198.207291 66.075340,203.431015 66.075340,209.022583 
	C60.813564,209.022583 55.701038,209.022583 50.164474,209.022583 
	C50.164474,214.461884 50.164474,219.561752 50.164474,224.992966 
	C44.656460,224.992966 39.566433,224.992966 33.851524,224.992966 
	C33.851524,219.897690 33.851524,214.684570 33.851524,209.124741 
	C28.131481,209.124741 23.019524,209.124741 17.550362,209.124741 
	C17.550362,203.689087 17.550362,198.602707 17.550362,192.623489 
	C21.273443,192.623489 25.188066,192.383270 29.059076,192.691223 
	C32.910179,192.997604 34.055779,191.478531 33.788746,187.829071 
	C33.522816,184.194733 33.730461,180.525726 33.730461,176.502625 
	C39.081074,176.502625 44.153706,176.502625 49.700470,176.502625 
	C49.804180,177.830765 49.915283,179.253555 50.026482,181.156555 
z"/>
<path fill="#323232" opacity="1.000000" stroke="none" 
	d="
M248.742615,203.808640 
	C248.674759,205.750320 248.608414,207.217209 248.534348,208.854385 
	C246.803558,208.854385 245.348663,208.854385 243.369095,208.854385 
	C243.369095,202.117966 243.342102,195.496460 243.406586,188.875854 
	C243.413849,188.129913 243.728653,187.146072 244.259460,186.689056 
	C246.247574,184.977325 256.089386,186.159256 258.081696,188.381790 
	C261.444763,192.133514 259.649536,195.390854 257.159332,198.010269 
	C258.359619,201.725342 259.451569,205.105057 260.659698,208.844391 
	C258.577332,208.844391 257.123718,208.844391 255.199020,208.844391 
	C254.569077,206.842361 254.093536,204.582123 253.121475,202.560623 
	C252.642029,201.563568 251.245438,201.007523 250.263855,200.251923 
	C249.757263,201.279221 249.250687,202.306534 248.742615,203.808640 
M248.722015,194.499725 
	C250.131027,194.910995 251.574020,195.683121 252.932281,195.555298 
	C253.472961,195.504410 254.482880,193.117538 254.110275,192.407715 
	C253.557327,191.354294 251.964890,190.846497 250.814896,190.106461 
	C250.112106,191.271942 249.409332,192.437408 248.722015,194.499725 
z"/>
<path fill="#373737" opacity="1.000000" stroke="none" 
	d="
M137.415436,208.717285 
	C135.673294,203.889954 134.253021,199.285049 132.834549,194.685944 
	C126.896652,196.148788 126.896652,196.148788 126.060463,208.543213 
	C122.719414,208.409225 122.227821,205.457199 123.481544,193.224640 
	C127.336288,193.224640 131.185944,193.224640 135.527466,193.224640 
	C136.430817,196.122345 137.471466,199.460449 138.512100,202.798569 
	C138.851135,202.810333 139.190170,202.822113 139.529205,202.833893 
	C140.372330,200.254776 141.107895,197.632599 142.114761,195.119080 
	C142.485214,194.194305 143.496475,193.526245 144.215424,192.741089 
	C144.900330,193.505249 145.871613,194.158966 146.216812,195.054123 
	C147.285812,197.826172 148.116592,200.690109 149.352142,204.475128 
	C150.086578,202.231277 150.562271,200.858841 150.983078,199.469803 
	C151.416397,198.039474 151.575378,196.473892 152.267227,195.189957 
	C152.852631,194.103577 154.027802,193.334976 154.941956,192.425735 
	C155.277588,192.710403 155.613205,192.995071 155.948822,193.279755 
	C154.493317,197.831253 153.111786,202.408966 151.517380,206.911285 
	C151.212875,207.771164 149.988937,208.957535 149.332016,208.873718 
	C148.529953,208.771393 147.575424,207.605515 147.219849,206.692093 
	C146.216568,204.114777 145.485947,201.431351 144.239014,197.500992 
	C142.918533,201.189972 142.215881,203.851929 140.997864,206.252396 
	C140.413879,207.403305 138.854782,208.059448 137.415436,208.717285 
z"/>
<path fill="#282828" opacity="1.000000" stroke="none" 
	d="
M279.992584,200.991760 
	C281.214600,193.337311 283.621643,191.601303 291.559662,192.543167 
	C291.700226,190.262054 291.839874,187.995514 291.999969,185.397232 
	C293.545074,185.397232 295.060730,185.397232 296.798431,185.397232 
	C296.798431,193.155365 296.798431,200.774719 296.798431,208.544800 
	C293.289978,208.786011 289.711029,209.438828 286.202332,209.171112 
	C281.742035,208.830795 280.362457,205.362473 279.992584,200.991760 
M287.173370,196.686249 
	C286.742218,198.908401 285.509979,201.367935 286.080505,203.293274 
	C286.811157,205.759033 289.271393,206.018753 291.074829,203.795792 
	C293.321045,201.027054 291.625397,197.261169 287.173370,196.686249 
z"/>
<path fill="#282828" opacity="1.000000" stroke="none" 
	d="
M323.209656,190.821655 
	C319.764801,191.588486 315.885529,191.436798 313.971985,193.301910 
	C312.457245,194.778320 312.122406,199.825119 313.462006,201.331848 
	C315.613708,203.751923 319.580902,204.557861 323.190308,205.510818 
	C324.700653,207.275665 324.840149,209.010666 321.189545,209.237671 
	C316.340576,209.539169 311.710358,209.289032 308.760620,204.777405 
	C305.973206,200.514160 306.003021,195.863586 308.501282,191.538284 
	C311.232422,186.809738 315.866760,185.766937 321.000000,186.012650 
	C324.635284,186.186646 325.286041,187.788239 323.209656,190.821655 
z"/>
<path fill="#2F2F2F" opacity="1.000000" stroke="none" 
	d="
M271.670074,192.133575 
	C277.046661,193.521301 278.145477,197.163467 277.889801,202.168213 
	C274.550232,202.358612 271.355133,202.540771 268.160034,202.722931 
	C268.074493,203.216202 267.988983,203.709457 267.903473,204.202713 
	C269.837677,204.524750 271.817200,204.689178 273.689331,205.227188 
	C274.836365,205.556824 275.818695,206.459351 276.875000,207.104599 
	C275.928802,207.776031 275.061859,208.848633 274.023529,209.053757 
	C267.310486,210.379959 262.769745,207.584427 262.145386,201.941284 
	C261.532562,196.402359 264.958801,192.707870 271.670074,192.133575 
z"/>
<path fill="#333333" opacity="1.000000" stroke="none" 
	d="
M91.080284,193.827591 
	C92.914711,196.740677 94.577072,199.332947 96.515587,202.355865 
	C98.299698,196.776489 95.289268,190.921707 99.695053,186.325592 
	C99.695053,193.685547 99.695053,201.045502 99.695053,208.430252 
	C96.740334,208.734848 96.737572,208.736588 92.713387,202.331741 
	C90.773544,199.244308 88.846336,196.148941 86.614014,192.578262 
	C84.640518,198.123001 87.726379,204.275955 84.829384,209.150635 
	C84.286301,209.055374 83.743217,208.960114 83.200134,208.864868 
	C83.200134,201.465591 83.200134,194.066330 83.200134,186.280899 
	C88.517586,186.013672 88.390778,191.221909 91.080284,193.827591 
z"/>
<path fill="#3A3A3A" opacity="1.000000" stroke="none" 
	d="
M182.660919,216.029602 
	C180.118958,215.637436 177.993530,215.224548 175.868103,214.811676 
	C185.625031,211.754272 185.625031,211.754272 185.887329,209.363434 
	C182.611420,208.474030 178.540054,208.542892 176.769089,206.558624 
	C174.986954,204.561844 174.654984,200.366592 175.206131,197.418594 
	C175.907547,193.666885 179.117233,191.818970 183.210892,192.429413 
	C185.272232,192.736786 187.328476,193.078323 189.664902,193.448441 
	C189.664902,198.195358 189.832504,203.332718 189.611618,208.453308 
	C189.436478,212.513977 187.460571,215.398743 182.660919,216.029602 
M180.914185,195.114960 
	C177.229309,197.073105 177.191452,200.339752 178.265167,203.622421 
	C179.303696,206.797485 183.406677,207.453888 185.442566,205.018539 
	C188.362106,201.526184 186.320328,195.985184 180.914185,195.114960 
z"/>
<path fill="#2B2B2B" opacity="1.000000" stroke="none" 
	d="
M354.388092,194.608826 
	C358.198395,201.286774 356.447906,207.659943 350.610291,209.014969 
	C346.654358,209.933228 342.809875,209.488876 340.590485,205.529572 
	C338.435120,201.684372 338.761108,197.787125 341.864594,194.516510 
	C344.877258,191.341629 349.228546,191.383865 354.388092,194.608826 
M348.404541,196.010315 
	C343.733063,196.862518 344.556610,200.341812 345.332672,203.288330 
	C345.575928,204.211960 347.771790,204.621292 349.073883,205.266022 
	C349.554382,202.741806 350.105194,200.227005 350.445251,197.684021 
	C350.501099,197.266617 349.630127,196.725281 348.404541,196.010315 
z"/>
<path fill="#2F2F2F" opacity="1.000000" stroke="none" 
	d="
M359.657990,205.174835 
	C361.891907,205.107574 363.811005,205.231476 367.217163,205.451385 
	C363.449829,201.543655 356.468750,201.089218 359.944733,195.307571 
	C361.109955,193.369385 365.240326,193.044403 368.111633,192.437988 
	C368.718170,192.309875 369.745911,194.175858 371.306458,195.948898 
	C367.985352,196.124191 366.185669,196.219193 364.386017,196.314178 
	C364.310638,196.674469 364.235291,197.034744 364.159912,197.395035 
	C365.662903,198.192993 367.499298,198.686600 368.579742,199.870255 
	C369.779266,201.184387 370.980835,203.167419 370.888855,204.785782 
	C370.809601,206.180817 369.182129,208.015610 367.773132,208.709061 
	C363.431885,210.845612 359.238434,209.001373 359.657990,205.174835 
z"/>
<path fill="#2B2B2B" opacity="1.000000" stroke="none" 
	d="
M375.775940,193.465790 
	C378.867859,192.864502 381.669312,192.503220 384.515717,192.136154 
	C385.385803,198.674088 380.301453,194.500381 378.813019,196.985474 
	C381.001404,199.998978 389.093170,200.643997 384.544617,206.649033 
	C382.984192,208.709137 378.066559,208.286652 374.648376,208.739273 
	C374.427887,208.768463 373.911530,206.563141 373.436737,205.101547 
	C376.171906,205.245865 378.110779,205.348160 381.604187,205.532486 
	C377.730316,201.374039 369.818085,200.377441 375.775940,193.465790 
z"/>
<path fill="#373737" opacity="1.000000" stroke="none" 
	d="
M111.167221,209.388885 
	C105.209389,207.875137 103.100151,204.816071 103.860435,199.301849 
	C104.455467,194.986191 107.758255,192.135086 112.035316,192.244949 
	C116.399994,192.357040 119.612701,195.689087 119.818016,200.316711 
	C120.046158,205.458832 117.325188,208.449707 111.167221,209.388885 
M111.566956,206.954376 
	C115.736816,206.510788 116.753929,203.434921 116.218231,200.192444 
	C115.904984,198.296494 114.203110,196.091263 112.505493,195.176147 
	C111.571442,194.672638 108.614616,196.129684 107.860802,197.443527 
	C106.099205,200.513855 106.341911,203.804382 109.437889,206.278381 
	C109.809532,206.575348 110.318993,206.699844 111.566956,206.954376 
z"/>
<path fill="#373737" opacity="1.000000" stroke="none" 
	d="
M164.320587,192.325897 
	C170.761597,193.187698 172.205734,195.005112 171.698242,201.493744 
	C168.306229,201.493744 164.876175,201.493744 161.430237,201.493744 
	C161.856659,206.641022 162.994873,207.236053 170.628494,206.672592 
	C170.724380,207.132980 170.820267,207.593384 170.916153,208.053772 
	C168.890167,208.475723 166.855911,209.281876 164.839951,209.238449 
	C160.828629,209.152054 158.453201,206.832138 157.843491,202.827484 
	C157.055832,197.654053 158.926102,194.476028 164.320587,192.325897 
M167.737015,195.676056 
	C164.074631,193.646652 162.256012,195.225555 160.596603,199.088745 
	C163.461166,199.088745 165.459274,199.241547 167.395569,198.963669 
	C167.797211,198.906021 167.969452,197.249969 167.737015,195.676056 
z"/>
<path fill="#373737" opacity="1.000000" stroke="none" 
	d="
M218.232178,197.402222 
	C218.238022,195.672623 218.238022,194.377975 218.238022,193.533707 
	C220.612595,193.192825 222.649368,193.056396 224.606155,192.586700 
	C228.550919,191.639816 231.731201,193.517410 232.078125,197.599609 
	C232.386185,201.224503 232.142761,204.896286 232.142761,209.962570 
	C230.622787,208.515991 229.289490,207.852936 229.198273,207.048981 
	C228.899994,204.419861 229.453583,201.649902 228.885040,199.112122 
	C228.541473,197.578598 226.726440,196.374725 225.572571,195.022736 
	C224.245987,196.271500 222.035080,197.359695 221.773300,198.801743 
	C221.193512,201.995682 221.592789,205.367355 220.682800,208.835480 
	C216.733948,205.933655 218.926239,201.507614 218.232178,197.402222 
z"/>
<path fill="#373737" opacity="1.000000" stroke="none" 
	d="
M209.550934,208.450958 
	C205.709244,209.857971 201.963547,210.194656 201.186783,205.803055 
	C199.984741,199.006989 206.186249,199.414841 210.490753,198.062988 
	C209.220444,192.665100 204.998856,196.039413 202.421188,195.099808 
	C202.318069,194.600540 202.214951,194.101273 202.111816,193.602005 
	C204.511765,193.233154 207.190857,192.043411 209.229660,192.736664 
	C211.101044,193.372986 213.166702,195.859360 213.571579,197.850891 
	C214.275909,201.315369 213.767456,205.026398 213.767456,209.059052 
	C212.288345,208.742523 211.113464,208.491104 209.550934,208.450958 
M205.514694,201.840363 
	C205.235489,203.260834 204.956284,204.681290 204.677078,206.101761 
	C205.890015,206.323502 207.671692,207.149353 208.204041,206.648178 
	C209.541107,205.389374 210.313492,203.530731 212.074005,200.678604 
	C208.993454,201.072021 207.593811,201.250763 205.514694,201.840363 
z"/>
<path fill="#2B2B2B" opacity="1.000000" stroke="none" 
	d="
M327.602051,195.644989 
	C328.394135,194.293594 329.114960,192.656601 329.997101,192.564484 
	C332.348358,192.318970 334.769012,192.738190 337.627625,192.923294 
	C337.676605,193.697983 337.765015,195.096664 337.860321,196.604218 
	C329.394928,197.826950 334.586151,204.687851 332.389008,208.785538 
	C331.129700,208.785538 329.698822,208.785538 327.604309,208.785538 
	C327.604309,204.560776 327.604309,200.312256 327.602051,195.644989 
z"/>
<path fill="#373737" opacity="1.000000" stroke="none" 
	d="
M197.437500,194.101120 
	C197.461868,198.492218 197.551193,202.491119 197.394669,206.480377 
	C197.360870,207.341934 196.441849,208.168777 195.930557,209.011597 
	C195.347946,208.233215 194.299988,207.476852 194.261917,206.672699 
	C194.081116,202.852127 194.167053,199.018494 194.174591,195.189545 
	C194.180115,192.376282 195.331696,192.011200 197.437500,194.101120 
z"/>
<path fill="#F6F6F6" opacity="1.000000" stroke="none" 
	d="
M248.714279,194.051300 
	C249.409332,192.437408 250.112106,191.271942 250.814896,190.106461 
	C251.964890,190.846497 253.557327,191.354294 254.110275,192.407715 
	C254.482880,193.117538 253.472961,195.504410 252.932281,195.555298 
	C251.574020,195.683121 250.131027,194.910995 248.714279,194.051300 
z"/>
<path fill="#E8E8E8" opacity="1.000000" stroke="none" 
	d="
M287.504761,196.496429 
	C291.625397,197.261169 293.321045,201.027054 291.074829,203.795792 
	C289.271393,206.018753 286.811157,205.759033 286.080505,203.293274 
	C285.509979,201.367935 286.742218,198.908401 287.504761,196.496429 
z"/>
<path fill="#F1F1F1" opacity="1.000000" stroke="none" 
	d="
M181.323059,195.031799 
	C186.320328,195.985184 188.362106,201.526184 185.442566,205.018539 
	C183.406677,207.453888 179.303696,206.797485 178.265167,203.622421 
	C177.191452,200.339752 177.229309,197.073105 181.323059,195.031799 
z"/>
<path fill="#F1F1F1" opacity="1.000000" stroke="none" 
	d="
M348.796021,196.125763 
	C349.630127,196.725281 350.501099,197.266617 350.445251,197.684021 
	C350.105194,200.227005 349.554382,202.741806 349.073914,205.266022 
	C347.771790,204.621292 345.575928,204.211960 345.332672,203.288330 
	C344.556610,200.341812 343.733063,196.862518 348.796021,196.125763 
z"/>
<path fill="#F6F6F6" opacity="1.000000" stroke="none" 
	d="
M111.165756,206.929337 
	C110.318993,206.699844 109.809532,206.575348 109.437889,206.278381 
	C106.341911,203.804382 106.099205,200.513855 107.860802,197.443527 
	C108.614616,196.129684 111.571442,194.672638 112.505493,195.176147 
	C114.203110,196.091263 115.904984,198.296494 116.218231,200.192444 
	C116.753929,203.434921 115.736816,206.510788 111.165756,206.929337 
z"/>
<path fill="#F6F6F6" opacity="1.000000" stroke="none" 
	d="
M167.992218,196.003326 
	C167.969452,197.249969 167.797211,198.906021 167.395569,198.963669 
	C165.459274,199.241547 163.461166,199.088745 160.596603,199.088745 
	C162.256012,195.225555 164.074631,193.646652 167.992218,196.003326 
z"/>
<path fill="#E8E8E8" opacity="1.000000" stroke="none" 
	d="
M205.854431,201.634933 
	C207.593811,201.250763 208.993454,201.072021 212.074005,200.678604 
	C210.313492,203.530731 209.541107,205.389374 208.204041,206.648178 
	C207.671692,207.149353 205.890015,206.323502 204.677063,206.101761 
	C204.956284,204.681290 205.235489,203.260834 205.854431,201.634933 
z"/>
</svg>