<svg version="1.1" id="Layer_1" xmlns="http://www.w3.org/2000/svg" xmlns:xlink="http://www.w3.org/1999/xlink" x="0px" y="0px"
	 width="100%" viewBox="0 0 400 400" enable-background="new 0 0 400 400" xml:space="preserve">
<path fill="#01537F" opacity="1.000000" stroke="none" 
	d="
M373.000000,401.000000 
	C248.705353,401.000000 124.910713,401.000000 1.058037,401.000000 
	C1.058037,267.747040 1.058037,134.494049 1.058037,1.120527 
	C134.211227,1.120527 267.422607,1.120527 400.816986,1.120527 
	C400.816986,134.333115 400.816986,267.666565 400.816986,401.000000 
	C391.827454,401.000000 382.663727,401.000000 373.000000,401.000000 
M45.117271,202.329620 
	C40.101971,195.295547 35.147110,188.216812 30.012474,181.270950 
	C29.146282,180.099213 27.567770,178.898209 26.208841,178.755768 
	C22.792471,178.397690 19.313450,178.637360 15.859549,178.637360 
	C16.372072,178.278946 16.884596,177.920532 17.397120,177.562134 
	C18.933334,180.016876 20.357452,182.550781 22.025290,184.912582 
	C29.020706,194.818695 36.089447,204.673035 43.130657,214.546814 
	C48.450821,222.007202 51.202667,222.977890 58.937500,220.970673 
	C54.693058,215.248566 50.117462,209.080032 45.117271,202.329620 
M328.985840,211.542419 
	C321.965393,201.622391 315.062103,191.615219 307.810699,181.867020 
	C306.584045,180.218033 303.956879,179.187759 301.800751,178.760925 
	C299.135529,178.233322 296.286377,178.634705 293.516663,178.634705 
	C294.359619,178.023941 295.202545,177.413162 296.045471,176.802399 
	C297.266144,179.418533 298.150940,182.265701 299.764557,184.611572 
	C307.500275,195.857742 315.524597,206.905655 323.237000,218.167404 
	C325.382324,221.299988 327.704559,222.138245 331.910400,220.493118 
	C331.051758,217.624329 330.230804,214.881470 328.985840,211.542419 
M348.820007,183.671646 
	C356.773865,194.952606 364.815948,206.173019 372.623688,217.554214 
	C374.754456,220.660172 376.927399,222.445389 381.473236,220.590668 
	C380.888702,218.049408 380.972351,214.950302 379.561340,212.860321 
	C372.304718,202.112045 364.723907,191.579407 357.077881,181.101669 
	C356.179718,179.870819 354.246277,178.932678 352.686462,178.745682 
	C349.629425,178.379227 346.497437,178.638000 343.153503,178.638000 
	C345.217834,180.399948 346.800507,181.750793 348.820007,183.671646 
M280.015137,206.479523 
	C280.015198,199.334320 279.853668,192.183197 280.114166,185.047516 
	C280.191864,182.919632 281.451996,180.834915 282.082581,178.987579 
	C277.977936,178.987579 273.265411,178.987579 268.120026,178.987579 
	C272.316193,182.285355 272.446198,217.674774 268.630768,221.115387 
	C273.463837,221.115387 278.199219,221.115387 282.024536,221.115387 
	C281.345978,219.200043 280.342987,217.365021 280.098022,215.433838 
	C279.766083,212.817245 280.015228,210.126938 280.015137,206.479523 
M229.988464,184.038544 
	C230.668854,182.311539 231.349243,180.584534 231.974609,178.997192 
	C227.766113,178.997192 223.068542,178.997192 217.890198,178.997192 
	C222.266602,182.243103 222.477600,217.574677 218.676880,220.971146 
	C223.315186,220.971146 227.986847,220.971146 231.672089,220.971146 
	C231.077713,218.995987 230.089203,217.192398 230.061768,215.374283 
	C229.908661,205.226593 229.988129,195.075394 229.988464,184.038544 
M131.033905,193.505981 
	C131.033905,188.698624 131.033905,183.891281 131.033905,178.980408 
	C126.971191,178.980408 123.272858,178.980408 119.107521,178.980408 
	C123.421059,182.172180 123.525627,217.643143 119.591621,221.142868 
	C124.470070,221.142868 129.228531,221.142868 132.978775,221.142868 
	C132.324783,219.077850 131.193954,217.056976 131.123016,214.999573 
	C130.887695,208.174637 131.033981,201.336533 131.033905,193.505981 
M151.012527,221.941406 
	C153.892517,221.485062 156.772507,221.028732 159.652496,220.572388 
	C155.420670,219.566116 154.851562,219.331299 153.923203,214.156738 
	C152.709167,207.389862 150.478531,201.742676 141.172852,200.738541 
	C151.151230,198.298019 154.885361,194.035370 153.906784,187.643204 
	C152.994522,181.684143 146.994232,178.505371 136.869446,179.338272 
	C143.558792,180.822693 145.382919,184.727692 145.153717,190.132645 
	C144.891922,196.306824 141.233871,199.296097 134.428177,200.640549 
	C140.846085,202.119995 142.625839,205.796814 143.242615,210.733871 
	C143.820190,215.357132 144.702423,220.136292 151.012527,221.941406 
M186.512238,220.182327 
	C186.315567,220.348358 186.118912,220.514374 185.922256,220.680420 
	C186.239868,220.908783 186.558472,221.338211 186.874969,221.336670 
	C202.425781,221.261108 211.792465,209.865555 208.946655,194.522888 
	C207.248154,185.365738 197.905991,178.400940 191.562500,180.282593 
	C193.628174,183.216858 197.289368,186.236343 197.921829,189.794205 
	C199.052734,196.156158 199.046661,202.930771 198.222748,209.367355 
	C197.475784,215.202881 193.187637,218.901443 186.512238,220.182327 
M100.080200,192.040817 
	C101.090805,202.596603 102.056442,213.140579 92.273094,220.918259 
	C102.245605,221.221069 111.286324,210.304199 110.773834,198.863113 
	C110.275185,187.731125 101.610001,178.408188 92.516029,179.425812 
	C97.328148,181.955765 99.010109,186.341568 100.080200,192.040817 
M78.765724,183.516876 
	C79.993790,182.117386 81.221855,180.717896 82.597809,179.149872 
	C72.123268,179.548111 63.926907,190.497314 65.154037,202.003815 
	C66.253868,212.316650 75.005325,221.594131 82.536484,220.431046 
	C74.457916,211.966721 72.678459,196.738892 78.765724,183.516876 
M171.656982,204.484970 
	C171.490845,210.024689 171.324707,215.564407 171.159698,221.066833 
	C173.335068,221.066833 176.582565,221.066833 179.853668,221.066833 
	C179.853668,206.799927 179.853668,192.813004 179.853668,178.942001 
	C176.215622,178.942001 172.985764,178.942001 170.436234,178.942001 
	C172.807663,187.126984 171.154205,195.392441 171.656982,204.484970 
M247.639267,205.806580 
	C244.959900,202.112183 242.280533,198.417801 239.327576,194.346161 
	C237.083633,196.716644 235.320740,198.578949 233.489426,200.513550 
	C237.425583,205.838882 241.213913,210.674484 244.617325,215.767319 
	C245.495377,217.081238 245.164169,219.203293 245.389725,220.964005 
	C249.647995,220.964005 254.603683,220.964005 258.766663,220.964005 
	C255.242981,216.180389 251.640701,211.290100 247.639267,205.806580 
M298.891388,194.316956 
	C298.366486,200.566116 298.101044,206.852921 297.202332,213.047852 
	C296.781250,215.950378 295.138245,218.675644 294.209015,221.069092 
	C296.428802,221.069092 299.924683,221.069092 302.171326,221.069092 
	C301.181366,218.856430 299.606903,216.656189 299.243744,214.271469 
	C298.264130,207.838577 297.772308,201.329544 297.207794,194.840210 
	C297.176544,194.480637 298.239746,194.025864 298.891388,194.316956 
M245.325989,180.197235 
	C248.486237,184.878555 243.551559,187.352982 243.000580,191.564987 
	C247.787872,187.335938 252.575165,183.106873 257.648041,178.625519 
	C253.284241,178.625519 249.167130,178.615189 245.051254,178.681198 
	C244.940811,178.682968 244.843628,179.511368 245.325989,180.197235 
M331.238129,195.473343 
	C332.443207,189.885742 328.275635,182.982803 335.913116,178.874725 
	C332.067657,178.874725 328.827667,178.874725 326.671448,178.874725 
	C327.664825,181.212082 329.252869,183.559113 329.597900,186.076477 
	C330.157074,190.156219 329.819244,194.352188 330.044678,198.489029 
	C330.102570,199.550751 330.560211,201.099991 331.331726,201.527512 
	C335.180176,203.660156 333.755341,205.525146 330.431824,208.829086 
	C330.193787,205.879105 329.821320,204.132233 329.975800,202.433273 
	C330.159027,200.417938 330.795898,198.443832 331.238129,195.473343 
M19.596966,211.383133 
	C19.298607,214.987701 20.409859,219.196228 14.011973,221.095963 
	C18.867783,221.095963 22.189720,221.095963 24.166056,221.095963 
	C23.206392,218.647247 21.518955,216.116974 21.321188,213.475204 
	C20.880278,207.585556 21.183487,201.640167 21.183487,195.717499 
	C20.657337,195.719879 20.131186,195.722260 19.605036,195.724640 
	C19.605036,200.624359 19.605036,205.524094 19.596966,211.383133 
M384.741028,178.680389 
	C381.648621,178.680389 378.556213,178.680389 375.997223,178.680389 
	C382.994751,187.461548 377.774231,198.108322 380.852386,207.305695 
	C381.109100,200.869675 381.335846,194.418320 381.026123,187.992828 
	C380.833038,183.987152 381.721313,180.885010 384.741028,178.680389 
M53.980389,194.184052 
	C55.159630,188.956161 50.653522,182.052902 59.866615,178.668304 
	C54.842247,178.668304 51.172798,178.668304 46.768261,178.668304 
	C56.128178,183.161285 49.472271,192.020248 53.396301,198.691879 
	C53.689121,196.885468 53.833591,195.994217 53.980389,194.184052 
M349.024902,194.753281 
	C348.919861,193.004913 348.814819,191.256561 348.709778,189.508194 
	C348.273438,189.551422 347.837067,189.594635 347.400696,189.637848 
	C347.400696,196.214371 347.400696,202.790894 347.400696,209.367416 
	C347.945404,209.410599 348.490082,209.453781 349.034790,209.496964 
	C349.034790,204.892014 349.034790,200.287048 349.024902,194.753281 
z"/>
<path fill="#F7F9FB" opacity="1.000000" stroke="none" 
	d="
M45.329567,202.620544 
	C50.117462,209.080032 54.693058,215.248566 58.937500,220.970673 
	C51.202667,222.977890 48.450821,222.007202 43.130657,214.546814 
	C36.089447,204.673035 29.020706,194.818695 22.025290,184.912582 
	C20.357452,182.550781 18.933334,180.016876 17.397120,177.562134 
	C16.884596,177.920532 16.372072,178.278946 15.859549,178.637360 
	C19.313450,178.637360 22.792471,178.397690 26.208841,178.755768 
	C27.567770,178.898209 29.146282,180.099213 30.012474,181.270950 
	C35.147110,188.216812 40.101971,195.295547 45.329567,202.620544 
z"/>
<path fill="#F8FAFB" opacity="1.000000" stroke="none" 
	d="
M329.197876,211.840515 
	C330.230804,214.881470 331.051758,217.624329 331.910400,220.493118 
	C327.704559,222.138245 325.382324,221.299988 323.237000,218.167404 
	C315.524597,206.905655 307.500275,195.857742 299.764557,184.611572 
	C298.150940,182.265701 297.266144,179.418533 296.045471,176.802399 
	C295.202545,177.413162 294.359619,178.023941 293.516663,178.634705 
	C296.286377,178.634705 299.135529,178.233322 301.800751,178.760925 
	C303.956879,179.187759 306.584045,180.218033 307.810699,181.867020 
	C315.062103,191.615219 321.965393,201.622391 329.197876,211.840515 
z"/>
<path fill="#F9FAFC" opacity="1.000000" stroke="none" 
	d="
M348.601562,183.386642 
	C346.800507,181.750793 345.217834,180.399948 343.153503,178.638000 
	C346.497437,178.638000 349.629425,178.379227 352.686462,178.745682 
	C354.246277,178.932678 356.179718,179.870819 357.077881,181.101669 
	C364.723907,191.579407 372.304718,202.112045 379.561340,212.860321 
	C380.972351,214.950302 380.888702,218.049408 381.473236,220.590668 
	C376.927399,222.445389 374.754456,220.660172 372.623688,217.554214 
	C364.815948,206.173019 356.773865,194.952606 348.601562,183.386642 
z"/>
<path fill="#F7F9FB" opacity="1.000000" stroke="none" 
	d="
M280.015137,206.973892 
	C280.015228,210.126938 279.766083,212.817245 280.098022,215.433838 
	C280.342987,217.365021 281.345978,219.200043 282.024536,221.115387 
	C278.199219,221.115387 273.463837,221.115387 268.630768,221.115387 
	C272.446198,217.674774 272.316193,182.285355 268.120026,178.987579 
	C273.265411,178.987579 277.977936,178.987579 282.082581,178.987579 
	C281.451996,180.834915 280.191864,182.919632 280.114166,185.047516 
	C279.853668,192.183197 280.015198,199.334320 280.015137,206.973892 
z"/>
<path fill="#F6F9FA" opacity="1.000000" stroke="none" 
	d="
M229.988281,184.481964 
	C229.988129,195.075394 229.908661,205.226593 230.061768,215.374283 
	C230.089203,217.192398 231.077713,218.995987 231.672089,220.971146 
	C227.986847,220.971146 223.315186,220.971146 218.676880,220.971146 
	C222.477600,217.574677 222.266602,182.243103 217.890198,178.997192 
	C223.068542,178.997192 227.766113,178.997192 231.974609,178.997192 
	C231.349243,180.584534 230.668854,182.311539 229.988281,184.481964 
z"/>
<path fill="#F5F8FA" opacity="1.000000" stroke="none" 
	d="
M131.033905,194.004730 
	C131.033981,201.336533 130.887695,208.174637 131.123016,214.999573 
	C131.193954,217.056976 132.324783,219.077850 132.978775,221.142868 
	C129.228531,221.142868 124.470070,221.142868 119.591621,221.142868 
	C123.525627,217.643143 123.421059,182.172180 119.107521,178.980408 
	C123.272858,178.980408 126.971191,178.980408 131.033905,178.980408 
	C131.033905,183.891281 131.033905,188.698624 131.033905,194.004730 
z"/>
<path fill="#F5F8FA" opacity="1.000000" stroke="none" 
	d="
M150.613831,221.875366 
	C144.702423,220.136292 143.820190,215.357132 143.242615,210.733871 
	C142.625839,205.796814 140.846085,202.119995 134.428177,200.640549 
	C141.233871,199.296097 144.891922,196.306824 145.153717,190.132645 
	C145.382919,184.727692 143.558792,180.822693 136.869446,179.338272 
	C146.994232,178.505371 152.994522,181.684143 153.906784,187.643204 
	C154.885361,194.035370 151.151230,198.298019 141.172852,200.738541 
	C150.478531,201.742676 152.709167,207.389862 153.923203,214.156738 
	C154.851562,219.331299 155.420670,219.566116 159.652496,220.572388 
	C156.772507,221.028732 153.892517,221.485062 150.613831,221.875366 
z"/>
<path fill="#F5F8FA" opacity="1.000000" stroke="none" 
	d="
M186.840973,220.127869 
	C193.187637,218.901443 197.475784,215.202881 198.222748,209.367355 
	C199.046661,202.930771 199.052734,196.156158 197.921829,189.794205 
	C197.289368,186.236343 193.628174,183.216858 191.562500,180.282593 
	C197.905991,178.400940 207.248154,185.365738 208.946655,194.522888 
	C211.792465,209.865555 202.425781,221.261108 186.874969,221.336670 
	C186.558472,221.338211 186.239868,220.908783 185.922241,220.680420 
	C186.118912,220.514374 186.315567,220.348358 186.840973,220.127869 
z"/>
<path fill="#F5F8FA" opacity="1.000000" stroke="none" 
	d="
M100.036133,191.601501 
	C99.010109,186.341568 97.328148,181.955765 92.516029,179.425812 
	C101.610001,178.408188 110.275185,187.731125 110.773834,198.863113 
	C111.286324,210.304199 102.245605,221.221069 92.273094,220.918259 
	C102.056442,213.140579 101.090805,202.596603 100.036133,191.601501 
z"/>
<path fill="#F6F9FA" opacity="1.000000" stroke="none" 
	d="
M78.528732,183.811600 
	C72.678459,196.738892 74.457916,211.966721 82.536484,220.431046 
	C75.005325,221.594131 66.253868,212.316650 65.154037,202.003815 
	C63.926907,190.497314 72.123268,179.548111 82.597809,179.149872 
	C81.221855,180.717896 79.993790,182.117386 78.528732,183.811600 
z"/>
<path fill="#FEFEFE" opacity="1.000000" stroke="none" 
	d="
M171.656967,203.987488 
	C171.154205,195.392441 172.807663,187.126984 170.436234,178.942001 
	C172.985764,178.942001 176.215622,178.942001 179.853668,178.942001 
	C179.853668,192.813004 179.853668,206.799927 179.853668,221.066833 
	C176.582565,221.066833 173.335068,221.066833 171.159698,221.066833 
	C171.324707,215.564407 171.490845,210.024689 171.656967,203.987488 
z"/>
<path fill="#F5F8FA" opacity="1.000000" stroke="none" 
	d="
M247.838837,206.103210 
	C251.640701,211.290100 255.242981,216.180389 258.766663,220.964005 
	C254.603683,220.964005 249.647995,220.964005 245.389725,220.964005 
	C245.164169,219.203293 245.495377,217.081238 244.617325,215.767319 
	C241.213913,210.674484 237.425583,205.838882 233.489426,200.513550 
	C235.320740,198.578949 237.083633,196.716644 239.327576,194.346161 
	C242.280533,198.417801 244.959900,202.112183 247.838837,206.103210 
z"/>
<path fill="#DFE8EE" opacity="1.000000" stroke="none" 
	d="
M298.842468,193.966187 
	C298.239746,194.025864 297.176544,194.480637 297.207794,194.840210 
	C297.772308,201.329544 298.264130,207.838577 299.243744,214.271469 
	C299.606903,216.656189 301.181366,218.856430 302.171326,221.069092 
	C299.924683,221.069092 296.428802,221.069092 294.209015,221.069092 
	C295.138245,218.675644 296.781250,215.950378 297.202332,213.047852 
	C298.101044,206.852921 298.366486,200.566116 298.842468,193.966187 
z"/>
<path fill="#EDF2F5" opacity="1.000000" stroke="none" 
	d="
M245.033127,180.075760 
	C244.843628,179.511368 244.940811,178.682968 245.051254,178.681198 
	C249.167130,178.615189 253.284241,178.625519 257.648041,178.625519 
	C252.575165,183.106873 247.787872,187.335938 243.000580,191.564987 
	C243.551559,187.352982 248.486237,184.878555 245.033127,180.075760 
z"/>
<path fill="#EDF2F5" opacity="1.000000" stroke="none" 
	d="
M331.237152,195.962585 
	C330.795898,198.443832 330.159027,200.417938 329.975800,202.433273 
	C329.821320,204.132233 330.193787,205.879105 330.431824,208.829086 
	C333.755341,205.525146 335.180176,203.660156 331.331726,201.527512 
	C330.560211,201.099991 330.102570,199.550751 330.044678,198.489029 
	C329.819244,194.352188 330.157074,190.156219 329.597900,186.076477 
	C329.252869,183.559113 327.664825,181.212082 326.671448,178.874725 
	C328.827667,178.874725 332.067657,178.874725 335.913116,178.874725 
	C328.275635,182.982803 332.443207,189.885742 331.237152,195.962585 
z"/>
<path fill="#EDF2F5" opacity="1.000000" stroke="none" 
	d="
M19.601002,210.903473 
	C19.605036,205.524094 19.605036,200.624359 19.605036,195.724640 
	C20.131186,195.722260 20.657337,195.719879 21.183487,195.717499 
	C21.183487,201.640167 20.880278,207.585556 21.321188,213.475204 
	C21.518955,216.116974 23.206392,218.647247 24.166056,221.095963 
	C22.189720,221.095963 18.867783,221.095963 14.011973,221.095963 
	C20.409859,219.196228 19.298607,214.987701 19.601002,210.903473 
z"/>
<path fill="#EDF2F5" opacity="1.000000" stroke="none" 
	d="
M385.018494,178.753555 
	C381.721313,180.885010 380.833038,183.987152 381.026123,187.992828 
	C381.335846,194.418320 381.109100,200.869675 380.852386,207.305695 
	C377.774231,198.108322 382.994751,187.461548 375.997223,178.680389 
	C378.556213,178.680389 381.648621,178.680389 385.018494,178.753555 
z"/>
<path fill="#BED0DC" opacity="1.000000" stroke="none" 
	d="
M53.979225,194.643509 
	C53.833591,195.994217 53.689121,196.885468 53.396301,198.691879 
	C49.472271,192.020248 56.128178,183.161285 46.768261,178.668304 
	C51.172798,178.668304 54.842247,178.668304 59.866615,178.668304 
	C50.653522,182.052902 55.159630,188.956161 53.979225,194.643509 
z"/>
<path fill="#93B1C5" opacity="1.000000" stroke="none" 
	d="
M349.029846,195.217682 
	C349.034790,200.287048 349.034790,204.892014 349.034790,209.496964 
	C348.490082,209.453781 347.945404,209.410599 347.400696,209.367416 
	C347.400696,202.790894 347.400696,196.214371 347.400696,189.637848 
	C347.837067,189.594635 348.273438,189.551422 348.709778,189.508194 
	C348.814819,191.256561 348.919861,193.004913 349.029846,195.217682 
z"/>
</svg>