<svg version="1.2" xmlns="http://www.w3.org/2000/svg" viewBox="0 0 1041 1561" width="1041" height="1561">
	<title>kongsberg-svg</title>
	<style>
		.s0 { fill: #d71539 } 
		.s1 { fill: #fff572 } 
	</style>
	<g id="Layer">
		<path id="Layer" class="s0" d="m0 0h1040.7v1561h-1040.7z"/>
		<path id="Layer" class="s1" d="m511.7 511.7q-91.1 0-169.1 26l-65-112.8c0 0 0 0 0-4.3 0 0 0 0 4.3 0 4.3 0 26 0 26 0 0 0 4.3 0 4.3 4.3 0 4.4 0 21.7 0 21.7 0 4.4 4.4 4.4 4.4 0 0-4.3 4.3-13 4.3-17.3 0-4.4 4.3-4.4 8.7 0l17.3 8.6c0 0 0 0 0 4.4 0 4.3-4.3 17.3-4.3 21.7 0 0 0 4.3-4.3 4.3-4.4 0-17.4-4.3-17.4-4.3 0 0-4.3 0-4.3 4.3 4.3 8.7 13 17.3 26 21.7 17.3 4.3 34.7 0 43.4-13 4.3-8.7 8.6-17.4 8.6-26v-4.4c0 0 0 0-4.3 0-4.3 4.4-4.3 8.7-8.7 8.7-4.3 4.3-8.7 4.3-13 4.3-8.7-4.3-13-13-13-21.7 0-4.3 4.3-8.6 8.7-13q6.5-6.5 13 0c4.3 0 4.3 4.4 8.7 4.4 0 0 4.3-4.4 0-4.4-4.4-4.3-13.1-13-17.4-30.3 0-13 4.3-26 8.7-30.4 0 0 0 0 4.3 0 13 4.4 21.7 17.4 21.7 30.4 0 13-4.3 26-4.3 26v4.3h4.3c4.3-4.3 8.7-13 13-13 4.3 0 13 0 13 8.7 4.3 4.3 4.3 17.3 4.3 21.7-4.3 4.3-8.6 8.7-13 8.7-4.3 0-8.6-4.4-13-4.4 0 0 0 0-4.3 0 0 0 0 4.4 0 8.7 4.3 13 21.7 26 34.7 26 17.3 0 34.7-8.7 43.3-26 4.4-4.3 4.4-8.7 4.4-17.4 0 0 0 0 0-4.3-4.4 0-4.4 4.3-8.7 4.3l4.3 4.4c0 0 0 0-4.3 0-4.3-4.4-8.7-13-17.3-21.7 0 0 0 0 0-4.3 4.3-8.7 8.6-13 13-21.7 0 0 0 0 4.3 0 8.7 4.3 13 8.7 21.7 13 0 0 4.3 0 4.3-4.3 0-4.4-8.6-8.7-8.6-13 0-4.4-4.4-4.4 0-4.4l21.6-13c0 0 17.4 13 21.7 13 4.4 0 0 4.4 0 4.4 0 4.3-8.7 13-8.7 17.3 0 4.3 4.4 4.3 4.4 4.3 8.7-4.3 13-8.6 21.7-13 0 0 0 0 4.3 0 4.3 8.7 8.7 13 13 21.7 0 0 0 0 0 4.3-4.3 8.7-8.7 13-17.3 21.7 0 0 0 0-4.4 0l-17.3-13c-4.4 0-4.4-4.3-8.7-4.3 0 0 0 0 0 4.3 0 4.3 0 8.7 4.3 17.4 8.7 17.3 26.1 26 43.4 26 17.3 0 30.4-13 34.7-26 0 0 0-4.4 0-8.7 0 0 0 0-4.3 0-4.4 4.3-8.7 8.7-13.1 4.3-4.3 0-8.6-4.3-13-8.7-4.3-8.6 0-17.3 4.4-21.6 4.3-4.4 8.6-8.7 13-8.7 4.3 0 8.7 8.7 13 13 0 0 0 0 4.3 0 0 0 4.4-4.3 0-4.3 0 0-4.3-13-4.3-26 0-13.1 13-26.1 21.7-30.4h4.3c8.7 4.3 13 17.3 8.7 30.4 0 13-13 26-17.4 30.3 0 4.3 0 4.3 0 4.3 4.4 0 8.7-4.3 8.7-4.3 4.3-4.3 8.7 0 13 0 4.4 4.3 8.7 8.7 8.7 13 0 8.7-4.3 17.4-13 21.7-4.4 0-8.7 0-13-4.3-4.4-4.4-4.4-4.4-8.7-8.7 0 0 0 0-4.3 0v4.3c0 8.7 4.3 21.7 8.6 26 8.7 13 30.4 21.7 43.4 13 8.7-4.3 21.7-8.6 26-21.6 0-4.4-4.3-4.4-4.3-4.4 0 0-13 4.4-17.4 4.4-4.3 0-4.3 0-4.3-4.4 0 0-4.3-17.3-4.3-21.7 0-4.3 0-4.3 0-4.3l17.3-8.7c17.3 4.4 17.3 4.4 17.3 8.7 0 0 4.4 8.7 4.4 17.4 0 4.3 4.3 4.3 4.3 0 0 0 0-17.4 0-21.7 0-4.4 0-4.4 4.4-4.4h26c4.3 0 4.3 0 4.3 0 0 0 0 0 0 4.4l-65 112.7c-47.7-21.7-104.1-30.3-164.8-30.3z"/>
		<path id="Layer" fill-rule="evenodd" class="s1" d="m511.7 303.5c17.3 0 30.4 13 30.4 30.4 0 17.3-13.1 30.3-30.4 30.3 0 0 0 0-4.3 0-17.4 0-30.4-13-30.4-30.3 8.7-17.4 21.7-30.4 34.7-30.4zm-229.8 47.7c13 0 26 8.7 26 21.7 0 13-8.7 26-21.7 26-13 0-21.7-13-21.7-26-4.3-13 8.7-21.7 17.4-21.7zm30.3-60.7c13 0 21.7 8.7 21.7 21.7 0 13-8.7 21.7-21.7 21.7-13 0-21.6-8.7-21.6-21.7 0-8.7 8.6-21.7 21.6-21.7zm65.1-17.3c13 0 21.7 8.6 21.7 21.7 0 13-8.7 21.6-21.7 21.6-13 0-21.7-8.6-21.7-21.6 0-13.1 8.7-21.7 21.7-21.7zm69.4 26c13 0 26 8.7 26 21.7 0 13-13 26-26 26-13.1 0-21.7-13-21.7-26-4.4-8.7 8.6-17.4 21.7-21.7zm316.5 73.7c0 13-8.7 26-21.7 26-13 0-21.7-13-21.7-26 0-13 13-21.7 26-21.7 13.1 0 21.7 8.7 17.4 21.7zm-21.7-60.7c0 13-8.7 21.7-21.7 21.7-13 0-21.7-8.7-21.7-21.7 0-13 8.7-21.7 21.7-21.7 13 0 21.7 13 21.7 21.7zm-69.4-17.3c0 13-8.6 21.6-21.6 21.6-13.1 0-21.7-8.6-21.7-21.6 0-13.1 8.6-21.7 21.7-21.7 13 0 26 8.6 21.6 21.7zm-65 30.3c0 13-8.7 21.7-21.7 21.7-13 0-21.7-13-21.7-26 0-13 8.7-21.7 21.7-21.7 13 0 21.7 13 21.7 26zm-78.1-108.4l-8.6 26c8.6 0 17.3-4.3 21.7-8.7v34.7c-8.7-4.3-17.4-4.3-21.7-8.6l8.6 30.3c-4.3-4.3-13-4.3-17.3-4.3-4.3 0-13 0-17.3 4.3l8.6-30.3c-8.6 0-17.3 4.3-21.7 8.6v-30.3c8.7 4.3 17.4 4.3 21.7 8.7l-4.3-30.4zm-56.4 411.9c13-4.3 21.7-13 34.7-17.3l17.4 26-164.8 86.7c0-26-8.7-56.3-30.4-73.7-13-13-34.7-17.3-52-13-8.7 4.3-21.7 13-21.7 26 0 8.7 0 17.4 4.4 21.7 8.6-4.3 21.6-8.7 34.6-4.3 17.4 4.3 34.7 17.3 39.1 30.3 8.6 21.7 0 43.4-13 60.7-17.4 17.4-47.7 21.7-69.4 17.4-30.4-8.7-47.7-39.1-52.1-65.1-4.3-52 34.7-99.7 86.8-121.4 39-17.3 99.7-21.7 138.7-4.3 13 4.3 30.4 17.3 47.7 30.3zm286.2-13c8.7 17.4 4.3 43.4 4.3 65.1l-8.6 4.3-130.1 69.4v-65.1c0-8.6 0-17.3-8.7-21.6-8.7-8.7-26-4.4-39 0v147.4l82.4-39c26-13 56.3-17.4 82.4-4.4 26 13 30.3 39.1 30.3 60.7v60.7l-108.4 56.4c39 13 78.1 30.4 99.7 65 17.4 34.7 4.4 86.8 13 125.8 4.4 21.7 13.1 39 26.1 56.4l34.7-17.4 17.3 26-112.7 60.7-52.1 26.1c-34.7-39.1-60.7-78.1-65-121.4v-130.1c0-17.4 0-39.1-21.7-47.7q-13-6.5-26 0v117c-56.4 0-108.4 13.1-143.1 52.1-8.7 8.6-17.3 21.7-26 34.7-21.7-8.7-56.4-13-78.1 0-17.3 8.6-30.3 26-26 47.7 4.4 21.6 26 39 47.7 43.3 47.7 8.7 108.4 0 134.4-39l4.4-8.7c-17.4-13-26.1-30.3-21.7-52 4.3-21.7 26-39 47.7-43.4 26-4.3 47.7 4.4 65 21.7 17.4 17.4 21.7 43.4 8.7 65.1-21.7 52-82.4 73.7-134.4 82.3-65.1 13-138.8 8.7-195.1-17.3-39.1-17.3-69.4-47.7-73.8-86.7-4.3-47.7 26.1-86.7 69.4-112.8 26-13 60.7-26 91.1-26v-117.1h-82.4c0-34.6 13-73.7 52-91 13-4.4 26-8.7 39-8.7v-99.7l52.1-26 173.4-91.1 69.4-39c21.7-13 56.4-17.4 82.4-4.4 13 4.4 21.7 13.1 26 21.7zm-529 78.1c-4.3 17.3-4.3 39 8.7 52 8.6 13 26 17.4 43.3 13 8.7-4.3 21.7-13 21.7-21.7 0-8.6 0-17.3-8.7-26-8.6-4.3-17.3-4.3-26-4.3q-6.5 6.5-13 13c-13-4.3-21.7-17.4-26-26zm312.2 472.6c-13 0-26 4.3-30.4 13-4.3 8.7-8.6 21.7 0 26q6.5 13 26.1 13c-4.4 17.4-17.4 30.4-30.4 43.4 17.4-8.7 34.7-17.3 47.7-30.3 13-13.1 21.7-34.7 8.7-52.1-8.7-4.3-13-8.7-21.7-13zm-78.1-65c-60.7-13-125.7-8.7-177.7 17.3-34.7 17.4-60.7 47.7-60.7 82.4 0 30.4 26 52 52 65-8.7-8.6-8.7-21.6-8.7-34.6q0-19.6 13-39.1c26.1-30.3 69.4-43.3 112.8-34.7 17.3-26 47.7-47.7 78-56.3 4.4 0-8.7 0-8.7 0zm160.5-134.4c26 13 34.7 39 34.7 60.7v134.4c0 30.3 13 60.7 34.7 86.7l73.7-39c-17.4-26-30.4-52.1-30.4-86.7v-56.4c0-13 0-30.4-8.7-43.4-21.6-34.7-65-43.3-104-56.3zm-78.1-99.8l-47.7 26v143.1l-60.7 34.7c39.1 4.4 73.7 13 108.4 21.7 0-4.3 0-225.5 0-225.5zm30.4-17.3v108.4l47.7-26v-47.7c0-13 0-26.1-8.7-34.7-4.3-13-26-8.7-39 0zm125.7-60.7c-26 4.3-47.7 17.3-69.3 30.3 17.3 4.4 26 21.7 26 39v56.4l78-39v-26c0-13 0-30.4-4.3-43.4-8.7-13-17.4-17.3-30.4-17.3zm-238.5 225.4v-286.1l-73.7 39v112.7c-17.3 0-39 0-52 4.4-13 4.3-26 17.3-30.3 34.7h82.3v137.7c4-7.5 73.7-42.4 73.7-42.4zm-73.7 42.4q-0.3 0.7 0 1zm156.1-224.5v-143.1l-47.7 26.1v143.1zm151.8-216.8c-26 4.3-43.4 17.3-65 26 30.3 8.6 30.3 39 30.3 65l73.7-39c0-13 0-26-4.3-39-13-13-21.7-17.4-34.7-13zm-372.9 0c26 8.6 47.7 34.6 56.4 60.7l60.7-30.4c-30.4-30.3-73.7-39-117.1-30.3z"/>
	</g>
</svg>