<svg version="1.1" id="Layer_1" xmlns="http://www.w3.org/2000/svg" xmlns:xlink="http://www.w3.org/1999/xlink" x="0px" y="0px"
	 width="100%" viewBox="0 0 200 200" enable-background="new 0 0 200 200" xml:space="preserve">
<path fill="#AC362A" opacity="1.000000" stroke="none" 
	d="
M135.000000,201.000000 
	C90.000000,201.000000 45.500004,201.000000 1.000006,201.000000 
	C1.000004,134.333344 1.000004,67.666679 1.000002,1.000015 
	C67.666656,1.000010 134.333313,1.000010 200.999969,1.000005 
	C200.999985,67.666649 200.999985,134.333298 201.000000,200.999969 
	C179.166672,201.000000 157.333328,201.000000 135.000000,201.000000 
M82.597092,49.142708 
	C71.834541,55.455685 61.122086,61.856915 50.272213,68.016068 
	C47.739273,69.453941 46.903973,71.091026 46.922543,73.926659 
	C47.041428,92.077477 46.896385,110.230568 47.126087,128.379272 
	C47.149220,130.206894 48.641048,132.760147 50.215267,133.708588 
	C65.602562,142.979324 81.186501,151.922989 96.620926,161.116806 
	C99.081192,162.582275 100.869461,162.623764 103.348343,161.146210 
	C118.776993,151.949661 134.267792,142.854507 149.850983,133.922897 
	C152.455765,132.429962 153.070343,130.683960 153.056046,127.942917 
	C152.962158,109.958351 152.953690,91.972755 153.058365,73.988319 
	C153.074570,71.202225 152.365814,69.514961 149.784607,68.053383 
	C138.498138,61.662506 127.387238,54.962517 116.160820,48.464195 
	C110.719299,45.314419 105.131531,39.929207 99.668617,40.001274 
	C94.158577,40.073959 88.721153,45.651600 82.597092,49.142708 
z"/>
<path fill="#FDF7F5" opacity="1.000000" stroke="none" 
	d="
M82.924500,48.980049 
	C88.721153,45.651600 94.158577,40.073959 99.668617,40.001274 
	C105.131531,39.929207 110.719299,45.314419 116.160820,48.464195 
	C127.387238,54.962517 138.498138,61.662506 149.784607,68.053383 
	C152.365814,69.514961 153.074570,71.202225 153.058365,73.988319 
	C152.953690,91.972755 152.962158,109.958351 153.056046,127.942917 
	C153.070343,130.683960 152.455765,132.429962 149.850983,133.922897 
	C134.267792,142.854507 118.776993,151.949661 103.348343,161.146210 
	C100.869461,162.623764 99.081192,162.582275 96.620926,161.116806 
	C81.186501,151.922989 65.602562,142.979324 50.215267,133.708588 
	C48.641048,132.760147 47.149220,130.206894 47.126087,128.379272 
	C46.896385,110.230568 47.041428,92.077477 46.922543,73.926659 
	C46.903973,71.091026 47.739273,69.453941 50.272213,68.016068 
	C61.122086,61.856915 71.834541,55.455685 82.924500,48.980049 
M106.599266,149.042770 
	C110.182701,146.951355 113.854713,144.992783 117.300758,142.695297 
	C118.481247,141.908249 119.839890,140.281494 119.855270,139.022949 
	C120.033272,124.463066 119.968948,109.900215 119.968948,94.353027 
	C114.694168,97.453102 110.106491,100.007957 105.709244,102.856735 
	C104.861732,103.405807 104.380959,105.104012 104.372803,106.276573 
	C104.278030,119.907372 104.281258,133.539200 104.371696,147.170013 
	C104.376564,147.904907 105.386909,148.633118 106.599266,149.042770 
M64.549683,69.870239 
	C63.263966,70.706863 61.978249,71.543488 60.283451,72.646294 
	C65.122154,75.501686 69.349930,78.115112 73.712181,80.480530 
	C74.700226,81.016289 76.449966,81.202766 77.351105,80.684364 
	C89.949509,73.436752 102.461380,66.038719 115.589592,58.327671 
	C111.187019,55.695347 107.288048,53.543434 103.588997,51.090080 
	C101.078880,49.425266 99.090073,49.424355 96.434120,51.042496 
	C86.093369,57.342632 75.582985,63.364334 64.549683,69.870239 
M98.990402,95.289932 
	C99.759331,95.246140 100.680092,95.464478 101.274849,95.119995 
	C114.051460,87.719666 126.791580,80.256348 139.661194,72.733681 
	C125.774567,62.572559 125.774284,62.572067 111.827461,70.680542 
	C109.531303,72.015495 107.236221,73.352325 104.945213,74.696098 
	C98.306831,78.589806 91.670769,82.487480 84.359489,86.779434 
	C89.522842,89.807053 93.935326,92.394379 98.990402,95.289932 
M95.680611,135.085388 
	C94.629433,133.414001 93.963600,131.142044 92.459305,130.176865 
	C86.452477,126.322800 80.188835,122.868340 74.012634,119.279068 
	C68.186859,115.893456 62.351555,112.524261 56.324661,109.034477 
	C54.135395,125.964806 54.134270,125.966705 67.622864,133.961441 
	C70.338753,135.571152 73.061829,137.168900 75.790031,138.757660 
	C82.169571,142.472794 88.554222,146.179138 95.673058,150.316986 
	C95.673058,144.866165 95.673058,140.418640 95.680611,135.085388 
M87.070320,98.424355 
	C76.950096,92.536308 66.829880,86.648262 55.841606,80.255173 
	C55.841606,85.798622 55.545643,90.399658 55.982922,94.929924 
	C56.165466,96.821114 57.456150,99.295631 59.012833,100.252563 
	C69.604431,106.763496 80.396637,112.948502 91.138634,119.213791 
	C92.355995,119.923813 93.663857,120.478668 95.687172,121.480507 
	C95.687172,118.144630 95.342339,115.497589 95.753151,112.973541 
	C96.893494,105.967278 94.610939,101.127602 87.070320,98.424355 
M144.159805,122.220245 
	C144.159805,108.537842 144.159805,94.855446 144.159805,80.237808 
	C139.647781,82.867035 136.199966,85.139153 132.520538,86.937340 
	C129.550507,88.388847 128.669479,90.363342 128.722488,93.601601 
	C128.918335,105.566887 128.803909,117.537254 128.805984,129.505707 
	C128.806305,131.391602 128.806030,133.277496 128.806030,135.954453 
	C133.439880,133.271439 137.047409,130.927094 140.883240,129.049103 
	C143.561813,127.737694 144.547256,125.931862 144.159805,122.220245 
z"/>
<path fill="#AA3F34" opacity="1.000000" stroke="none" 
	d="
M106.264236,149.203613 
	C105.386909,148.633118 104.376564,147.904907 104.371696,147.170013 
	C104.281258,133.539200 104.278030,119.907372 104.372803,106.276573 
	C104.380959,105.104012 104.861732,103.405807 105.709244,102.856735 
	C110.106491,100.007957 114.694168,97.453102 119.968948,94.353027 
	C119.968948,109.900215 120.033272,124.463066 119.855270,139.022949 
	C119.839890,140.281494 118.481247,141.908249 117.300758,142.695297 
	C113.854713,144.992783 110.182701,146.951355 106.264236,149.203613 
z"/>
<path fill="#AA3C31" opacity="1.000000" stroke="none" 
	d="
M64.842697,69.679932 
	C75.582985,63.364334 86.093369,57.342632 96.434120,51.042496 
	C99.090073,49.424355 101.078880,49.425266 103.588997,51.090080 
	C107.288048,53.543434 111.187019,55.695347 115.589592,58.327671 
	C102.461380,66.038719 89.949509,73.436752 77.351105,80.684364 
	C76.449966,81.202766 74.700226,81.016289 73.712181,80.480530 
	C69.349930,78.115112 65.122154,75.501686 60.283451,72.646294 
	C61.978249,71.543488 63.263966,70.706863 64.842697,69.679932 
z"/>
<path fill="#AA3C31" opacity="1.000000" stroke="none" 
	d="
M98.669098,95.135818 
	C93.935326,92.394379 89.522842,89.807053 84.359489,86.779434 
	C91.670769,82.487480 98.306831,78.589806 104.945213,74.696098 
	C107.236221,73.352325 109.531303,72.015495 111.827461,70.680542 
	C125.774284,62.572067 125.774567,62.572559 139.661194,72.733681 
	C126.791580,80.256348 114.051460,87.719666 101.274849,95.119995 
	C100.680092,95.464478 99.759331,95.246140 98.669098,95.135818 
z"/>
<path fill="#AA3D32" opacity="1.000000" stroke="none" 
	d="
M95.676834,135.528259 
	C95.673058,140.418640 95.673058,144.866165 95.673058,150.316986 
	C88.554222,146.179138 82.169571,142.472794 75.790031,138.757660 
	C73.061829,137.168900 70.338753,135.571152 67.622864,133.961441 
	C54.134270,125.966705 54.135395,125.964806 56.324661,109.034477 
	C62.351555,112.524261 68.186859,115.893456 74.012634,119.279068 
	C80.188835,122.868340 86.452477,126.322800 92.459305,130.176865 
	C93.963600,131.142044 94.629433,133.414001 95.676834,135.528259 
z"/>
<path fill="#AA3C32" opacity="1.000000" stroke="none" 
	d="
M87.377739,98.624969 
	C94.610939,101.127602 96.893494,105.967278 95.753151,112.973541 
	C95.342339,115.497589 95.687172,118.144630 95.687172,121.480507 
	C93.663857,120.478668 92.355995,119.923813 91.138634,119.213791 
	C80.396637,112.948502 69.604431,106.763496 59.012833,100.252563 
	C57.456150,99.295631 56.165466,96.821114 55.982922,94.929924 
	C55.545643,90.399658 55.841606,85.798622 55.841606,80.255173 
	C66.829880,86.648262 76.950096,92.536308 87.377739,98.624969 
z"/>
<path fill="#A8392E" opacity="1.000000" stroke="none" 
	d="
M144.154755,122.679428 
	C144.547256,125.931862 143.561813,127.737694 140.883240,129.049103 
	C137.047409,130.927094 133.439880,133.271439 128.806030,135.954453 
	C128.806030,133.277496 128.806305,131.391602 128.805984,129.505707 
	C128.803909,117.537254 128.918335,105.566887 128.722488,93.601601 
	C128.669479,90.363342 129.550507,88.388847 132.520538,86.937340 
	C136.199966,85.139153 139.647781,82.867035 144.159805,80.237808 
	C144.159805,94.855446 144.159805,108.537842 144.154755,122.679428 
z"/>
</svg>