<?xml version="1.0" standalone="no"?>
<!DOCTYPE svg PUBLIC "-//W3C//DTD SVG 20010904//EN"
 "http://www.w3.org/TR/2001/REC-SVG-20010904/DTD/svg10.dtd">
<svg version="1.0" xmlns="http://www.w3.org/2000/svg"
 width="200.000000pt" height="200.000000pt" viewBox="0 0 200.000000 200.000000"
 preserveAspectRatio="xMidYMid meet">
<metadata>
Created by potrace 1.16, written by Peter Selinger 2001-2019
</metadata>
<g transform="translate(0.000000,200.000000) scale(0.100000,-0.100000)"
fill="#000000" stroke="none">
<path d="M618 1652 l-378 -217 0 -435 0 -435 373 -215 c204 -118 379 -214 387
-214 9 0 183 96 388 214 l372 215 0 435 0 435 -368 212 c-202 116 -374 214
-382 217 -9 4 -172 -84 -392 -212z m630 -154 c136 -77 251 -144 255 -148 6 -5
-360 -225 -495 -297 -5 -3 -495 275 -516 292 -2 2 498 293 506 294 2 1 114
-63 250 -141z m-498 -439 l185 -107 3 -276 c1 -152 0 -276 -3 -276 -4 0 -116
64 -251 142 -175 101 -243 145 -239 155 3 8 5 132 5 275 l0 259 58 -32 c31
-18 140 -81 242 -140z m801 -109 c0 -150 -2 -274 -3 -275 -11 -9 -478 -275
-483 -275 -3 0 -5 123 -5 273 l0 273 243 141 c133 77 243 139 245 138 1 -1 3
-125 3 -275z"/>
</g>
</svg>
