<svg version="1.1" id="Layer_1" xmlns="http://www.w3.org/2000/svg" xmlns:xlink="http://www.w3.org/1999/xlink" x="0px" y="0px"
	 width="100%" viewBox="0 0 900 900" enable-background="new 0 0 900 900" xml:space="preserve">
<path fill="#FFFFFF" opacity="1.000000" stroke="none"
	d="
M586.000000,901.000000
	C390.666656,901.000000 195.833328,901.000000 1.000000,901.000000
	C1.000000,601.000000 1.000000,301.000000 1.000000,1.000000
	C301.000000,1.000000 601.000000,1.000000 901.000000,1.000000
	C901.000000,301.000000 901.000000,601.000000 901.000000,901.000000
	C796.166687,901.000000 691.333313,901.000000 586.000000,901.000000
M384.413422,459.776947
	C384.497498,460.839203 384.581543,461.901489 384.429077,463.881897
	C384.408966,504.901093 384.386627,545.920288 384.381866,586.939514
	C384.381744,587.923706 384.577332,588.907959 384.378693,590.476929
	C384.167664,594.348450 387.136841,593.093506 388.958069,593.096130
	C433.124512,593.160339 477.291107,593.151001 521.457642,593.138306
	C522.917542,593.137878 524.377502,592.963074 526.184753,592.847351
	C526.267273,590.975525 526.400696,589.354065 526.401184,587.732666
	C526.414001,544.399536 526.494019,501.065979 526.304382,457.733673
	C526.282532,452.741302 527.518372,451.204803 532.671387,451.228485
	C575.836975,451.427124 619.003906,451.336029 662.170471,451.332306
	C664.088806,451.332153 666.007202,451.332306 667.855835,451.332306
	C667.855835,403.503357 667.855835,356.450562 667.855835,309.084717
	C665.463440,309.084717 663.475098,309.084717 661.486755,309.084717
	C618.653564,309.084991 575.820312,309.087585 532.987122,309.082916
	C526.407776,309.082214 526.394592,309.066742 526.394104,302.515289
	C526.390930,259.515442 526.393860,216.515579 526.394836,173.515717
	C526.394897,171.561066 526.394836,169.606415 526.394836,167.571106
	C478.759552,167.571106 431.718750,167.571106 384.229523,167.571106
	C384.229523,169.956390 384.229675,171.932083 384.229492,173.907761
	C384.225861,215.907623 384.249115,257.907532 384.199707,299.907318
	C384.187225,310.543091 385.364288,309.039795 375.324677,309.052643
	C333.158203,309.106659 290.991608,309.079071 248.825073,309.081360
	C246.886246,309.081451 244.947433,309.081390 242.858978,309.081390
	C242.858978,356.777130 242.858978,403.833282 242.858978,451.332184
	C245.376953,451.332184 247.512177,451.332092 249.647415,451.332153
	C291.980621,451.333679 334.313873,451.320801 376.647003,451.371613
	C379.272644,451.374756 381.897705,451.878662 384.381378,452.998383
	C384.476379,455.002106 384.571411,457.005829 384.413422,459.776947
M343.687988,697.793274
	C343.772461,698.856018 343.856934,699.918823 343.765289,701.768127
	C343.811035,702.838928 343.856750,703.909668 343.206177,705.078003
	C328.861694,692.313782 306.727234,697.604431 297.035278,711.221313
	C286.875336,725.495667 286.322906,749.635559 296.300964,764.070312
	C307.970612,780.952087 330.499359,782.431396 344.280853,767.241516
	C344.539246,766.956665 345.085144,766.932678 345.806763,766.677246
	C346.273499,769.807556 346.705017,772.701477 347.154633,775.717041
	C354.055420,775.717041 360.811066,775.717041 367.498230,775.717041
	C367.498230,738.804260 367.498230,702.147400 367.498230,664.784058
	C359.322083,665.215271 351.694885,665.617493 343.772949,666.913452
	C343.826965,676.950562 343.880981,686.987732 343.687988,697.793274
M500.879639,673.907166
	C500.873138,681.046997 500.846924,688.186951 500.863708,695.326721
	C500.925446,721.555237 501.001495,747.783691 500.939545,774.506470
	C501.015198,774.659363 501.090881,774.812195 501.436432,775.786072
	C509.013000,775.786072 516.589600,775.786072 524.545105,775.786072
	C524.545105,766.892761 525.169678,758.523743 524.372192,750.292603
	C523.549011,741.796692 528.133667,736.706177 533.571960,731.319214
	C534.786865,733.389160 535.895386,735.224854 536.953430,737.089294
	C543.690552,748.960632 550.381470,760.858521 557.196167,772.684998
	C557.939880,773.975708 559.348206,775.765503 560.495117,775.800781
	C569.052551,776.064392 577.621826,775.944092 586.886902,775.944092
	C585.670654,773.756226 584.927246,772.311829 584.088013,770.925415
	C573.650940,753.682983 563.273132,736.403748 552.677246,719.259338
	C550.989746,716.528870 551.017883,714.834839 553.026245,712.309143
	C562.773438,700.051270 572.303467,687.620483 581.889099,675.234558
	C582.807739,674.047546 583.579163,672.746582 584.884399,670.806763
	C575.347595,670.806763 566.861084,670.656250 558.389160,670.940186
	C556.792480,670.993713 554.785828,672.434937 553.769775,673.822632
	C549.540527,679.598816 545.610657,685.594543 541.584229,691.518677
	C536.221069,699.409546 530.870117,707.308777 525.513977,715.204468
	C525.169678,715.142273 524.825439,715.080078 524.481140,715.017883
	C524.481140,700.371094 524.481140,685.724365 524.481140,670.813965
	C516.764648,670.813965 509.784821,670.786194 502.806183,670.866272
	C502.245270,670.872620 501.692841,671.620544 500.937317,672.493286
	C500.982208,672.657288 501.027069,672.821228 500.879639,673.907166
M112.255035,756.499329
	C112.255035,762.914124 112.255035,769.328918 112.255035,775.581177
	C120.701164,775.581177 128.272293,775.581177 136.125885,775.581177
	C136.125885,761.910339 136.125885,748.623413 136.125885,735.382446
	C151.293152,733.333252 155.961578,736.464661 159.707336,750.788757
	C161.599686,758.025269 163.518951,765.260437 165.720459,772.405518
	C166.151199,773.803467 167.895401,775.746094 169.105270,775.798828
	C176.389648,776.116516 183.694870,775.956665 191.305344,775.956665
	C188.707535,766.388062 186.189987,757.285583 183.771362,748.156921
	C181.477951,739.500916 178.449188,731.336182 169.874680,726.531738
	C170.638763,726.010010 171.028137,725.704651 171.452591,725.460083
	C183.966110,718.248352 189.214203,708.369080 187.390045,695.443848
	C185.600632,682.764648 178.309509,674.358643 163.628082,672.148804
	C151.079361,670.259949 138.134399,670.867554 125.360260,670.689087
	C121.112259,670.629822 116.850464,671.557129 112.255089,672.071411
	C112.255089,700.220154 112.255089,727.859924 112.255035,756.499329
M217.287445,779.805298
	C218.630676,777.924133 219.973923,776.043030 221.261154,774.240295
	C244.031342,780.871521 261.920380,776.462524 272.304749,761.807556
	C283.209442,746.418274 281.310791,726.451843 266.974976,706.987610
	C269.090729,703.789795 271.252899,700.521729 273.587891,696.992554
	C270.624451,694.934937 268.078888,693.167419 265.157562,691.139038
	C262.547516,694.834534 260.112946,698.281616 257.786957,701.574890
	C237.608658,694.356018 218.391968,698.363464 207.897293,711.684021
	C202.453674,718.593445 199.912338,726.564270 199.495483,735.272644
	C198.876755,748.198120 202.517807,759.543579 212.325134,768.365417
	C210.037491,771.968933 208.017792,775.150391 205.861389,778.547180
	C208.565582,780.697510 210.988617,782.624268 213.657349,784.746399
	C214.919891,783.046936 215.892014,781.738464 217.287445,779.805298
M609.254089,772.302673
	C615.099426,774.052795 620.838135,776.615967 626.810242,777.398743
	C643.881653,779.636230 660.135071,771.041626 666.867615,757.014709
	C674.535339,741.039429 672.011475,720.293579 660.503723,708.989319
	C648.127991,696.832520 632.989258,695.400879 617.264404,700.101501
	C602.457153,704.527832 594.019348,715.341614 591.896057,730.523743
	C589.541870,747.357361 593.454529,762.011475 609.254089,772.302673
M409.561310,776.063721
	C423.414948,778.954285 436.892609,777.560486 450.474060,772.759583
	C449.405457,767.274109 448.399475,762.109924 447.429596,757.131165
	C446.612518,756.966187 446.272125,756.794861 445.981659,756.856934
	C444.846710,757.099426 443.739716,757.480469 442.600555,757.694397
	C433.072052,759.483704 423.506836,761.086243 414.129303,757.144226
	C409.202301,755.073059 405.585480,751.767822 405.168823,745.422424
	C421.529266,745.422424 437.465057,745.422424 453.731903,745.422424
	C455.547333,735.685303 454.865448,726.541504 451.340240,717.700562
	C446.663300,705.971130 437.919861,699.327087 425.354492,697.949158
	C404.212280,695.630676 387.165375,707.844543 383.034943,728.150513
	C378.245636,751.695740 387.635162,769.145325 409.561310,776.063721
M742.677673,762.100342
	C742.261230,763.710876 742.062622,765.419861 741.387634,766.913513
	C739.339539,771.445984 741.278259,773.415771 745.563110,774.727844
	C755.299316,777.709167 765.163330,778.655457 775.152649,776.816956
	C784.752441,775.050171 792.975525,770.911682 796.633484,761.065735
	C801.170654,748.853027 795.983765,737.550293 783.253174,731.635559
	C778.434998,729.397095 773.275940,727.850342 768.600281,725.369934
	C766.943481,724.491028 765.088867,721.517517 765.431274,719.964966
	C765.855164,718.042908 768.204407,715.934937 770.210754,715.137695
	C772.377197,714.276917 775.189331,714.413208 777.575378,714.869629
	C781.915161,715.699768 786.148132,717.088379 790.722778,718.324158
	C792.049683,712.996216 793.358704,707.739807 794.787598,702.002319
	C780.559692,696.959473 766.753662,695.148804 753.493591,702.901184
	C738.117310,711.890869 738.005371,731.570557 753.075562,740.984375
	C756.978516,743.422363 761.503174,744.865967 765.744690,746.760986
	C767.861328,747.706665 770.331482,748.242676 771.997192,749.700439
	C773.431335,750.955505 774.823364,753.354126 774.629639,755.065613
	C774.436096,756.776001 772.516052,759.175476 770.882629,759.648438
	C767.792908,760.542908 764.246399,760.924561 761.106018,760.345825
	C755.462097,759.305786 749.977905,757.399231 744.256653,755.807251
	C743.817261,757.487976 743.316895,759.401917 742.677673,762.100342
M709.219788,756.499390
	C709.298157,749.175781 709.016479,741.825928 709.546753,734.535156
	C710.197998,725.581299 716.091858,720.460510 725.061768,720.242615
	C727.351746,720.186951 729.644165,720.234253 732.190491,720.234253
	C732.190491,712.950256 732.190491,705.722046 732.190491,698.556396
	C722.324219,696.306763 716.686768,699.166382 706.428162,711.777405
	C706.056396,707.402710 705.729675,703.558655 705.415466,699.861450
	C698.311096,699.861450 691.749207,699.861450 685.331177,699.861450
	C685.331177,725.301758 685.331177,750.380005 685.331177,775.687561
	C693.387573,775.687561 701.106567,775.687561 709.219604,775.687561
	C709.219604,769.442871 709.219604,763.470581 709.219788,756.499390
z"/>
<path fill="#21211F" opacity="1.000000" stroke="none"
	d="
M112.255066,755.999512
	C112.255089,727.859924 112.255089,700.220154 112.255089,672.071411
	C116.850464,671.557129 121.112259,670.629822 125.360260,670.689087
	C138.134399,670.867554 151.079361,670.259949 163.628082,672.148804
	C178.309509,674.358643 185.600632,682.764648 187.390045,695.443848
	C189.214203,708.369080 183.966110,718.248352 171.452591,725.460083
	C171.028137,725.704651 170.638763,726.010010 169.874680,726.531738
	C178.449188,731.336182 181.477951,739.500916 183.771362,748.156921
	C186.189987,757.285583 188.707535,766.388062 191.305344,775.956665
	C183.694870,775.956665 176.389648,776.116516 169.105270,775.798828
	C167.895401,775.746094 166.151199,773.803467 165.720459,772.405518
	C163.518951,765.260437 161.599686,758.025269 159.707336,750.788757
	C155.961578,736.464661 151.293152,733.333252 136.125885,735.382446
	C136.125885,748.623413 136.125885,761.910339 136.125885,775.581177
	C128.272293,775.581177 120.701164,775.581177 112.255035,775.581177
	C112.255035,769.328918 112.255035,762.914124 112.255066,755.999512
M157.777969,690.540100
	C150.905411,686.730286 143.642700,688.046387 136.261490,688.426575
	C136.261490,698.326721 136.261490,707.737793 136.261490,717.679382
	C141.336853,717.379578 146.187576,717.487366 150.894531,716.716736
	C156.999115,715.717224 161.764328,712.587891 163.367661,706.062378
	C164.855469,700.006958 163.476959,694.880310 157.777969,690.540100
z"/>
<path fill="#21211F" opacity="1.000000" stroke="none"
	d="
M501.136475,672.023865
	C501.692841,671.620544 502.245270,670.872620 502.806183,670.866272
	C509.784821,670.786194 516.764648,670.813965 524.481140,670.813965
	C524.481140,685.724365 524.481140,700.371094 524.481140,715.017883
	C524.825439,715.080078 525.169678,715.142273 525.513977,715.204468
	C530.870117,707.308777 536.221069,699.409546 541.584229,691.518677
	C545.610657,685.594543 549.540527,679.598816 553.769775,673.822632
	C554.785828,672.434937 556.792480,670.993713 558.389160,670.940186
	C566.861084,670.656250 575.347595,670.806763 584.884399,670.806763
	C583.579163,672.746582 582.807739,674.047546 581.889099,675.234558
	C572.303467,687.620483 562.773438,700.051270 553.026245,712.309143
	C551.017883,714.834839 550.989746,716.528870 552.677246,719.259338
	C563.273132,736.403748 573.650940,753.682983 584.088013,770.925415
	C584.927246,772.311829 585.670654,773.756226 586.886902,775.944092
	C577.621826,775.944092 569.052551,776.064392 560.495117,775.800781
	C559.348206,775.765503 557.939880,773.975708 557.196167,772.684998
	C550.381470,760.858521 543.690552,748.960632 536.953430,737.089294
	C535.895386,735.224854 534.786865,733.389160 533.571960,731.319214
	C528.133667,736.706177 523.549011,741.796692 524.372192,750.292603
	C525.169678,758.523743 524.545105,766.892761 524.545105,775.786072
	C516.589600,775.786072 509.013000,775.786072 501.440521,775.272339
	C501.320465,774.509827 501.196320,774.260986 501.072174,774.012207
	C501.001495,747.783691 500.925446,721.555237 500.863708,695.326721
	C500.846924,688.186951 500.873138,681.046997 501.132233,673.365234
	C501.450409,672.727112 501.593170,672.582214 501.568451,672.543091
	C501.449219,672.354370 501.284851,672.194153 501.136475,672.023865
z"/>
<path fill="#212120" opacity="1.000000" stroke="none"
	d="
M344.067627,666.019714
	C351.694885,665.617493 359.322083,665.215271 367.498230,664.784058
	C367.498230,702.147400 367.498230,738.804260 367.498230,775.717041
	C360.811066,775.717041 354.055420,775.717041 347.154633,775.717041
	C346.705017,772.701477 346.273499,769.807556 345.806763,766.677246
	C345.085144,766.932678 344.539246,766.956665 344.280853,767.241516
	C330.499359,782.431396 307.970612,780.952087 296.300964,764.070312
	C286.322906,749.635559 286.875336,725.495667 297.035278,711.221313
	C306.727234,697.604431 328.861694,692.313782 343.847137,704.847961
	C344.305847,703.405823 344.123596,702.193665 343.941406,700.981567
	C343.856934,699.918823 343.772461,698.856018 344.129700,697.131104
	C344.712158,689.370972 344.960785,682.272827 344.943298,675.175232
	C344.935760,672.122681 344.376343,669.071533 344.067627,666.019714
M343.697021,735.596497
	C343.696198,734.096924 343.743011,732.595520 343.686523,731.098022
	C343.404388,723.614868 338.965790,717.936401 332.330902,716.527588
	C325.554901,715.088806 319.235596,718.275574 316.057587,725.173767
	C312.304871,733.319275 312.277954,741.678528 315.940552,749.863342
	C318.690247,756.008057 324.443634,759.121460 330.897156,758.438232
	C337.141388,757.777100 341.636902,753.758606 342.990845,746.949951
	C343.664032,743.564941 343.489044,740.011292 343.697021,735.596497
z"/>
<path fill="#20201F" opacity="1.000000" stroke="none"
	d="
M217.075806,780.117615
	C215.892014,781.738464 214.919891,783.046936 213.657349,784.746399
	C210.988617,782.624268 208.565582,780.697510 205.861389,778.547180
	C208.017792,775.150391 210.037491,771.968933 212.325134,768.365417
	C202.517807,759.543579 198.876755,748.198120 199.495483,735.272644
	C199.912338,726.564270 202.453674,718.593445 207.897293,711.684021
	C218.391968,698.363464 237.608658,694.356018 257.786957,701.574890
	C260.112946,698.281616 262.547516,694.834534 265.157562,691.139038
	C268.078888,693.167419 270.624451,694.934937 273.587891,696.992554
	C271.252899,700.521729 269.090729,703.789795 266.974976,706.987610
	C281.310791,726.451843 283.209442,746.418274 272.304749,761.807556
	C261.920380,776.462524 244.031342,780.871521 221.261154,774.240295
	C219.973923,776.043030 218.630676,777.924133 217.075806,780.117615
M225.127228,724.879150
	C222.064484,732.939331 221.536804,740.977661 225.426178,749.940857
	C233.041946,738.860168 240.238449,728.389465 247.445770,717.903076
	C238.756622,712.338806 231.286453,714.634338 225.127228,724.879150
M246.780380,736.268066
	C241.838715,743.338501 236.897049,750.408997 231.967560,757.462036
	C238.497299,762.601196 247.746445,760.865479 252.342545,753.416992
	C257.484222,745.084167 257.129700,736.179871 254.002045,726.178528
	C251.355881,729.841125 249.255051,732.748962 246.780380,736.268066
z"/>
<path fill="#C02A34" opacity="1.000000" stroke="none"
	d="
M384.523041,452.149597
	C381.897705,451.878662 379.272644,451.374756 376.647003,451.371613
	C334.313873,451.320801 291.980621,451.333679 249.647415,451.332153
	C247.512177,451.332092 245.376953,451.332184 242.858978,451.332184
	C242.858978,403.833282 242.858978,356.777130 242.858978,309.081390
	C244.947433,309.081390 246.886246,309.081451 248.825073,309.081360
	C290.991608,309.079071 333.158203,309.106659 375.324677,309.052643
	C385.364288,309.039795 384.187225,310.543091 384.199707,299.907318
	C384.249115,257.907532 384.225861,215.907623 384.229492,173.907761
	C384.229675,171.932083 384.229523,169.956390 384.229523,167.571106
	C431.718750,167.571106 478.759552,167.571106 526.394836,167.571106
	C526.394836,169.606415 526.394897,171.561066 526.394836,173.515717
	C526.393860,216.515579 526.390930,259.515442 526.394104,302.515289
	C526.394592,309.066742 526.407776,309.082214 532.987122,309.082916
	C575.820312,309.087585 618.653564,309.084991 661.486755,309.084717
	C663.475098,309.084717 665.463440,309.084717 667.855835,309.084717
	C667.855835,356.450562 667.855835,403.503357 667.855835,451.332306
	C666.007202,451.332306 664.088806,451.332153 662.170471,451.332306
	C619.003906,451.336029 575.836975,451.427124 532.671387,451.228485
	C527.518372,451.204803 526.282532,452.741302 526.304382,457.733673
	C526.494019,501.065979 526.414001,544.399536 526.401184,587.732666
	C526.400696,589.354065 526.267273,590.975525 526.184753,592.847351
	C524.377502,592.963074 522.917542,593.137878 521.457642,593.138306
	C477.291107,593.151001 433.124512,593.160339 388.958069,593.096130
	C387.136841,593.093506 384.167664,594.348450 384.864349,590.214722
	C385.573303,589.965637 385.796570,589.978821 386.340179,590.030090
	C387.447571,590.409485 388.234680,590.750854 389.325073,591.369385
	C390.608582,591.763550 391.588715,591.982422 392.568939,591.982849
	C433.634033,591.999939 474.699127,592.006531 515.764160,591.958923
	C517.170471,591.957275 518.576111,591.387512 520.390747,591.053833
	C524.982788,590.658508 523.998413,587.441040 524.000427,584.961792
	C524.035400,542.310364 524.019592,499.658936 524.018494,457.007507
	C524.018311,449.466980 524.442566,449.033112 531.907166,449.032196
	C574.392029,449.027008 616.876831,449.029816 659.361694,449.025879
	C666.009277,449.025269 666.028503,449.015656 666.029480,442.374268
	C666.035339,401.222290 666.033264,360.070312 666.030457,318.918335
	C666.029968,311.962067 666.022583,311.953766 659.167480,311.952972
	C617.682251,311.948090 576.197083,311.947510 534.711853,311.945221
	C524.819397,311.944672 524.021912,311.134918 524.022095,301.082886
	C524.023071,259.264496 523.948425,217.445740 524.132751,175.628143
	C524.153503,170.932281 522.739807,169.830002 518.225281,169.847702
	C476.407501,170.011551 434.588623,170.005875 392.770752,169.853317
	C388.315277,169.837067 386.816864,170.866348 386.841827,175.616730
	C387.040222,213.435486 386.948547,251.255798 386.945374,289.075623
	C386.945007,293.407410 387.437805,297.809662 386.834656,302.056061
	C385.642395,310.450470 386.709381,312.009888 376.478455,311.989258
	C336.159668,311.907837 295.840637,311.949249 255.521713,311.962372
	C244.340897,311.966003 244.346436,311.993103 244.938095,323.011444
	C245.000534,324.174438 244.951859,325.343506 244.951904,326.509735
	C244.952301,341.004578 244.952972,355.499390 244.952042,369.994232
	C244.950485,394.485474 244.934677,418.976746 244.955063,443.467987
	C244.960114,449.543976 245.424500,450.066467 251.532990,449.928040
	C260.162170,449.732544 268.786102,449.097382 277.413544,449.070770
	C311.234497,448.966400 345.056244,448.968658 378.876495,449.153473
	C381.222717,449.166290 383.559021,450.993500 385.555420,452.017700
	C384.981628,452.088806 384.752350,452.119202 384.523041,452.149597
z"/>
<path fill="#20201E" opacity="1.000000" stroke="none"
	d="
M608.934204,772.124634
	C593.454529,762.011475 589.541870,747.357361 591.896057,730.523743
	C594.019348,715.341614 602.457153,704.527832 617.264404,700.101501
	C632.989258,695.400879 648.127991,696.832520 660.503723,708.989319
	C672.011475,720.293579 674.535339,741.039429 666.867615,757.014709
	C660.135071,771.041626 643.881653,779.636230 626.810242,777.398743
	C620.838135,776.615967 615.099426,774.052795 608.934204,772.124634
M642.686768,722.015930
	C639.765442,717.206299 635.623657,714.451233 629.869995,715.031982
	C623.705444,715.654236 619.988098,719.557861 618.013550,725.109314
	C614.947571,733.729675 614.881287,742.450500 618.306458,750.984253
	C620.583313,756.656738 624.678040,760.345398 631.125366,760.480896
	C636.772034,760.599670 641.703369,756.846313 643.995728,750.385010
	C647.295837,741.083191 647.181702,731.793091 642.686768,722.015930
z"/>
<path fill="#20201E" opacity="1.000000" stroke="none"
	d="
M409.155121,776.000610
	C387.635162,769.145325 378.245636,751.695740 383.034943,728.150513
	C387.165375,707.844543 404.212280,695.630676 425.354492,697.949158
	C437.919861,699.327087 446.663300,705.971130 451.340240,717.700562
	C454.865448,726.541504 455.547333,735.685303 453.731903,745.422424
	C437.465057,745.422424 421.529266,745.422424 405.168823,745.422424
	C405.585480,751.767822 409.202301,755.073059 414.129303,757.144226
	C423.506836,761.086243 433.072052,759.483704 442.600555,757.694397
	C443.739716,757.480469 444.846710,757.099426 445.981659,756.856934
	C446.272125,756.794861 446.612518,756.966187 447.429596,757.131165
	C448.399475,762.109924 449.405457,767.274109 450.474060,772.759583
	C436.892609,777.560486 423.414948,778.954285 409.155121,776.000610
M407.220093,720.923645
	C406.330994,723.338501 405.441895,725.753357 404.414917,728.542725
	C414.147858,728.542725 423.041779,728.542725 431.922241,728.542725
	C432.152069,721.505737 429.310760,716.556580 424.120911,714.635620
	C417.775360,712.286804 412.545929,714.083618 407.220093,720.923645
z"/>
<path fill="#20201F" opacity="1.000000" stroke="none"
	d="
M742.747131,761.708069
	C743.316895,759.401917 743.817261,757.487976 744.256653,755.807251
	C749.977905,757.399231 755.462097,759.305786 761.106018,760.345825
	C764.246399,760.924561 767.792908,760.542908 770.882629,759.648438
	C772.516052,759.175476 774.436096,756.776001 774.629639,755.065613
	C774.823364,753.354126 773.431335,750.955505 771.997192,749.700439
	C770.331482,748.242676 767.861328,747.706665 765.744690,746.760986
	C761.503174,744.865967 756.978516,743.422363 753.075562,740.984375
	C738.005371,731.570557 738.117310,711.890869 753.493591,702.901184
	C766.753662,695.148804 780.559692,696.959473 794.787598,702.002319
	C793.358704,707.739807 792.049683,712.996216 790.722778,718.324158
	C786.148132,717.088379 781.915161,715.699768 777.575378,714.869629
	C775.189331,714.413208 772.377197,714.276917 770.210754,715.137695
	C768.204407,715.934937 765.855164,718.042908 765.431274,719.964966
	C765.088867,721.517517 766.943481,724.491028 768.600281,725.369934
	C773.275940,727.850342 778.434998,729.397095 783.253174,731.635559
	C795.983765,737.550293 801.170654,748.853027 796.633484,761.065735
	C792.975525,770.911682 784.752441,775.050171 775.152649,776.816956
	C765.163330,778.655457 755.299316,777.709167 745.563110,774.727844
	C741.278259,773.415771 739.339539,771.445984 741.387634,766.913513
	C742.062622,765.419861 742.261230,763.710876 742.747131,761.708069
z"/>
<path fill="#222220" opacity="1.000000" stroke="none"
	d="
M709.219727,756.998901
	C709.219604,763.470581 709.219604,769.442871 709.219604,775.687561
	C701.106567,775.687561 693.387573,775.687561 685.331177,775.687561
	C685.331177,750.380005 685.331177,725.301758 685.331177,699.861450
	C691.749207,699.861450 698.311096,699.861450 705.415466,699.861450
	C705.729675,703.558655 706.056396,707.402710 706.428162,711.777405
	C716.686768,699.166382 722.324219,696.306763 732.190491,698.556396
	C732.190491,705.722046 732.190491,712.950256 732.190491,720.234253
	C729.644165,720.234253 727.351746,720.186951 725.061768,720.242615
	C716.091858,720.460510 710.197998,725.581299 709.546753,734.535156
	C709.016479,741.825928 709.298157,749.175781 709.219727,756.998901
z"/>
<path fill="#BE242C" opacity="1.000000" stroke="none"
	d="
M386.019867,589.992065
	C385.796570,589.978821 385.573303,589.965637 385.015808,589.922302
	C384.577332,588.907959 384.381744,587.923706 384.381866,586.939514
	C384.386627,545.920288 384.408966,504.901093 384.876282,463.432861
	C385.542633,462.985962 385.761780,462.988098 385.996643,463.459900
	C386.014862,505.950439 386.017365,547.971252 386.019867,589.992065
z"/>
<path fill="#050505" opacity="1.000000" stroke="none"
	d="
M343.920288,666.466553
	C344.376343,669.071533 344.935760,672.122681 344.943298,675.175232
	C344.960785,682.272827 344.712158,689.370972 344.253204,696.746887
	C343.880981,686.987732 343.826965,676.950562 343.920288,666.466553
z"/>
<path fill="#C02A34" opacity="1.000000" stroke="none"
	d="
M385.980896,462.990204
	C385.761780,462.988098 385.542633,462.985962 384.994537,462.973785
	C384.581543,461.901489 384.497498,460.839203 384.868652,459.392395
	C385.542725,459.008453 385.761627,459.009064 386.235779,459.221497
	C386.320984,460.618958 386.150940,461.804565 385.980896,462.990204
z"/>
<path fill="#BE242C" opacity="1.000000" stroke="none"
	d="
M385.980560,459.009705
	C385.761627,459.009064 385.542725,459.008453 384.995117,459.008667
	C384.571411,457.005829 384.476379,455.002106 384.452209,452.573975
	C384.752350,452.119202 384.981628,452.088806 385.592773,452.456970
	C385.976624,454.906891 385.978607,456.958313 385.980560,459.009705
z"/>
<path fill="#050505" opacity="1.000000" stroke="none"
	d="
M343.853333,701.374878
	C344.123596,702.193665 344.305847,703.405823 344.195282,704.799194
	C343.856750,703.909668 343.811035,702.838928 343.853333,701.374878
z"/>
<path fill="#101010" opacity="1.000000" stroke="none"
	d="
M501.036926,672.258545
	C501.284851,672.194153 501.449219,672.354370 501.568451,672.543091
	C501.593170,672.582214 501.450409,672.727112 501.228394,672.904236
	C501.027069,672.821228 500.982208,672.657288 501.036926,672.258545
z"/>
<path fill="#101010" opacity="1.000000" stroke="none"
	d="
M501.005859,774.259338
	C501.196320,774.260986 501.320465,774.509827 501.305573,774.861816
	C501.090881,774.812195 501.015198,774.659363 501.005859,774.259338
z"/>
<path fill="#F9F9F9" opacity="1.000000" stroke="none"
	d="
M158.087250,690.761108
	C163.476959,694.880310 164.855469,700.006958 163.367661,706.062378
	C161.764328,712.587891 156.999115,715.717224 150.894531,716.716736
	C146.187576,717.487366 141.336853,717.379578 136.261490,717.679382
	C136.261490,707.737793 136.261490,698.326721 136.261490,688.426575
	C143.642700,688.046387 150.905411,686.730286 158.087250,690.761108
z"/>
<path fill="#F8F8F8" opacity="1.000000" stroke="none"
	d="
M343.697388,736.065186
	C343.489044,740.011292 343.664032,743.564941 342.990845,746.949951
	C341.636902,753.758606 337.141388,757.777100 330.897156,758.438232
	C324.443634,759.121460 318.690247,756.008057 315.940552,749.863342
	C312.277954,741.678528 312.304871,733.319275 316.057587,725.173767
	C319.235596,718.275574 325.554901,715.088806 332.330902,716.527588
	C338.965790,717.936401 343.404388,723.614868 343.686523,731.098022
	C343.743011,732.595520 343.696198,734.096924 343.697388,736.065186
z"/>
<path fill="#F5F5F4" opacity="1.000000" stroke="none"
	d="
M225.304596,724.539062
	C231.286453,714.634338 238.756622,712.338806 247.445770,717.903076
	C240.238449,728.389465 233.041946,738.860168 225.426178,749.940857
	C221.536804,740.977661 222.064484,732.939331 225.304596,724.539062
z"/>
<path fill="#F5F5F5" opacity="1.000000" stroke="none"
	d="
M246.967285,735.962402
	C249.255051,732.748962 251.355881,729.841125 254.002045,726.178528
	C257.129700,736.179871 257.484222,745.084167 252.342545,753.416992
	C247.746445,760.865479 238.497299,762.601196 231.967560,757.462036
	C236.897049,750.408997 241.838715,743.338501 246.967285,735.962402
z"/>
<path fill="#E40613" opacity="1.000000" stroke="none"
	d="
M386.235779,459.221497
	C385.978607,456.958313 385.976624,454.906891 385.937317,452.416229
	C383.559021,450.993500 381.222717,449.166290 378.876495,449.153473
	C345.056244,448.968658 311.234497,448.966400 277.413544,449.070770
	C268.786102,449.097382 260.162170,449.732544 251.532990,449.928040
	C245.424500,450.066467 244.960114,449.543976 244.955063,443.467987
	C244.934677,418.976746 244.950485,394.485474 244.952042,369.994232
	C244.952972,355.499390 244.952301,341.004578 244.951904,326.509735
	C244.951859,325.343506 245.000534,324.174438 244.938095,323.011444
	C244.346436,311.993103 244.340897,311.966003 255.521713,311.962372
	C295.840637,311.949249 336.159668,311.907837 376.478455,311.989258
	C386.709381,312.009888 385.642395,310.450470 386.834656,302.056061
	C387.437805,297.809662 386.945007,293.407410 386.945374,289.075623
	C386.948547,251.255798 387.040222,213.435486 386.841827,175.616730
	C386.816864,170.866348 388.315277,169.837067 392.770752,169.853317
	C434.588623,170.005875 476.407501,170.011551 518.225281,169.847702
	C522.739807,169.830002 524.153503,170.932281 524.132751,175.628143
	C523.948425,217.445740 524.023071,259.264496 524.022095,301.082886
	C524.021912,311.134918 524.819397,311.944672 534.711853,311.945221
	C576.197083,311.947510 617.682251,311.948090 659.167480,311.952972
	C666.022583,311.953766 666.029968,311.962067 666.030457,318.918335
	C666.033264,360.070312 666.035339,401.222290 666.029480,442.374268
	C666.028503,449.015656 666.009277,449.025269 659.361694,449.025879
	C616.876831,449.029816 574.392029,449.027008 531.907166,449.032196
	C524.442566,449.033112 524.018311,449.466980 524.018494,457.007507
	C524.019592,499.658936 524.035400,542.310364 524.000427,584.961792
	C523.998413,587.441040 524.982788,590.658508 519.925598,591.025146
	C475.708374,591.047485 432.365082,591.069885 389.021759,591.092224
	C388.234680,590.750854 387.447571,590.409485 386.340179,590.030090
	C386.017365,547.971252 386.014862,505.950439 385.996643,463.459900
	C386.150940,461.804565 386.320984,460.618958 386.235779,459.221497
z"/>
<path fill="#BE242C" opacity="1.000000" stroke="none"
	d="
M389.325073,591.369385
	C432.365082,591.069885 475.708374,591.047485 519.516846,591.053833
	C518.576111,591.387512 517.170471,591.957275 515.764160,591.958923
	C474.699127,592.006531 433.634033,591.999939 392.568939,591.982849
	C391.588715,591.982422 390.608582,591.763550 389.325073,591.369385
z"/>
<path fill="#FAFAFA" opacity="1.000000" stroke="none"
	d="
M642.851685,722.358582
	C647.181702,731.793091 647.295837,741.083191 643.995728,750.385010
	C641.703369,756.846313 636.772034,760.599670 631.125366,760.480896
	C624.678040,760.345398 620.583313,756.656738 618.306458,750.984253
	C614.881287,742.450500 614.947571,733.729675 618.013550,725.109314
	C619.988098,719.557861 623.705444,715.654236 629.869995,715.031982
	C635.623657,714.451233 639.765442,717.206299 642.851685,722.358582
z"/>
<path fill="#F5F5F4" opacity="1.000000" stroke="none"
	d="
M407.429443,720.611145
	C412.545929,714.083618 417.775360,712.286804 424.120911,714.635620
	C429.310760,716.556580 432.152069,721.505737 431.922241,728.542725
	C423.041779,728.542725 414.147858,728.542725 404.414917,728.542725
	C405.441895,725.753357 406.330994,723.338501 407.429443,720.611145
z"/>
</svg>
